<svg xmlns="http://www.w3.org/2000/svg" viewBox="0 0 87 80"><defs><style>.cls-1,.cls-2{fill:#BDBDBD;}.cls-1{fill-rule:evenodd;}</style></defs><path class="cls-1" d="M81.21,51.55,70.88,52.73v.45a6,6,0,0,1-4.08,5.44c-4.53,1.45-15,3.72-15.5,3.81h-.45l-12-.27a2.17,2.17,0,0,1-2.17-2.27A2.09,2.09,0,0,1,39,57.81l11.15.27a3.44,3.44,0,0,0,1-.09c2.54-.55,10.24-2.27,13.86-3.45a1.72,1.72,0,0,0,1.45-1.81c.19-2.08-1.17-4.71-2.35-5.35-1.54-.81-6.16-.45-10.24-.18a52.54,52.54,0,0,1-9.34.27,49,49,0,0,1-7.16-1.36c-6.61-1.35-11-.63-15,.91-1.54.64-3.08,1.18-4.44,1.81A55,55,0,0,1,8.8,51.55L2.91,52.73a3,3,0,0,0-2.45,3v17a3,3,0,0,0,3.62,3l6.08-1.27a17.89,17.89,0,0,1,7.25.09l18.48,4.08a17.32,17.32,0,0,0,12.6-1l36.43-17.4A2.1,2.1,0,0,0,86.1,59C87.73,54.45,84.56,51.19,81.21,51.55Z"/><path class="cls-2" d="M53.41,19.21a2.88,2.88,0,0,0-2.48-1.43H46.36V3.56a2.86,2.86,0,0,0-5.72,0V17.78H36.07a2.86,2.86,0,0,0-2.48,4.29L41,34.94a2.87,2.87,0,0,0,5,0l7.43-12.87A2.86,2.86,0,0,0,53.41,19.21Z"/></svg>
