<svg xmlns="http://www.w3.org/2000/svg" viewBox="0 0 93 80"><defs><style>.cls-1,.cls-2{fill:#BDBDBD;}.cls-2{fill-rule:evenodd;}</style></defs><path class="cls-1" d="M73.61,78.75A17.88,17.88,0,1,1,91.49,60.87,17.9,17.9,0,0,1,73.61,78.75Zm0-30.49A12.61,12.61,0,1,0,86.22,60.87,12.63,12.63,0,0,0,73.61,48.26Z"/><path class="cls-1" d="M19.39,78.75A17.88,17.88,0,1,1,37.27,60.87,17.9,17.9,0,0,1,19.39,78.75Zm0-30.49A12.61,12.61,0,1,0,32,60.87,12.63,12.63,0,0,0,19.39,48.26Z"/><path class="cls-2" d="M66.7,35.84a2.6,2.6,0,1,1,0,5.2H54.94a2.62,2.62,0,0,1-1.36-.38,2.54,2.54,0,0,1-.91-.82L43.43,26.43,36.28,38.56l15.81,8.8a3.3,3.3,0,0,1,1.7,2.71,3.22,3.22,0,0,1-.27,1.63L46.17,68.37a3.32,3.32,0,1,1-6.08-2.69l6.16-14L28.77,42l-.16-.1A4.83,4.83,0,0,1,27,35.31l10.63-18a4.84,4.84,0,0,1,8.7,4.15l9.93,14.42ZM42.6,9a5.75,5.75,0,1,0,5.75-5.74A5.76,5.76,0,0,0,42.6,9Z"/><path class="cls-1" d="M36.11,13.2a2.63,2.63,0,0,0-1.23-1.6L17.56,1.6a2.64,2.64,0,0,0-3.6,1L2.79,21.92a2.64,2.64,0,0,0,1,3.6l17.31,10a2.64,2.64,0,0,0,1.32.35,2.61,2.61,0,0,0,2.28-1.32L35.85,15.2A2.64,2.64,0,0,0,36.11,13.2Z"/></svg>
