<svg xmlns="http://www.w3.org/2000/svg" viewBox="0 0 86 80"><defs><style>.cls-1{fill:#1e1f44;}.cls-2{fill:#dcdce1;}.cls-3{fill:#bbbbc6;}.cls-4{fill:#75768c;}.cls-5{fill:#5b5b76;}.cls-6{fill:#363757;}</style></defs><path class="cls-1" d="M44.17,23.41a5,5,0,0,1-5-5V6.5a5,5,0,0,1,10,0V18.41A5,5,0,0,1,44.17,23.41Z"/><path class="cls-1" d="M26.27,30.49A5,5,0,0,1,22.75,29l-8.44-8.4a5,5,0,0,1,7.06-7.09L29.8,22a5,5,0,0,1-3.53,8.54Z"/><path class="cls-1" d="M6.75,48.22a5,5,0,0,1,0-10l11.91,0h0a5,5,0,0,1,0,10l-11.91,0Z"/><path class="cls-2" d="M24.06,66.81A4,4,0,0,1,21.21,60L23,58.23a4,4,0,0,1,5.69,5.63L26.9,65.63A4,4,0,0,1,24.06,66.81Z"/><path class="cls-3" d="M43.56,78.5a4,4,0,0,1-4-4l0-5.91a4,4,0,0,1,4-4h0a4,4,0,0,1,4,4l0,5.91a4,4,0,0,1-4,4Z"/><path class="cls-4" d="M67.67,72.06a4.48,4.48,0,0,1-3.15-1.29l-6.31-6.19a4.5,4.5,0,1,1,6.3-6.42l6.31,6.19a4.5,4.5,0,0,1-3.15,7.71Z"/><path class="cls-5" d="M68.84,48.13a4.5,4.5,0,0,1,0-9L79.7,39h0a4.5,4.5,0,0,1,0,9l-10.91.12Z"/><path class="cls-6" d="M61.55,30.82A5,5,0,0,1,58,22.33l8.31-8.53a5,5,0,1,1,7.16,7l-8.3,8.53A5,5,0,0,1,61.55,30.82Z"/></svg>
