<svg width="50" height="50" viewBox="0 0 50 50" fill="none" xmlns="http://www.w3.org/2000/svg">
<rect width="50" height="50" rx="4" fill="#1E1F44"/>
<path d="M36.6483 33.9594C36.9909 34.1064 37.3823 34.1064 37.7248 34.1064C39.2906 34.2535 40.7095 34.7926 42.1285 35.3807C42.471 35.5277 42.8135 35.6257 42.9114 36.0178C43.0582 36.5079 43.0092 37.047 42.8624 37.4881C42.7646 37.8312 42.3731 37.8802 42.0306 37.9292C41.1499 38.0762 40.2691 37.9782 39.3884 37.7822C37.4801 37.4391 35.6697 36.704 33.8593 36.1649C33.37 36.0178 32.9297 35.7728 32.5382 35.4787C32.2446 35.2827 32 34.9886 32 34.5965C32.0489 33.6653 32.1468 32.7342 32.8318 31.95C33.419 31.3129 34.055 30.7248 34.6422 30.0876C35.0826 29.5975 35.5719 29.1564 36.1101 28.7153C36.893 28.0782 37.7248 27.5391 38.6545 27.147C38.948 27 39.2906 27 39.5841 27C40.2202 27.049 40.5627 27.4901 40.5138 28.0782C40.4159 29.2545 40.0245 30.2837 39.3395 31.2149C38.6055 32.1951 37.8226 33.1262 36.6973 33.8124C36.6483 33.8614 36.6483 33.9104 36.6483 33.9594ZM38.9481 29.4505C38.3609 29.4015 38.0673 29.8916 37.6759 30.1366C36.3548 31.0678 35.2294 32.146 34.1529 33.3223C34.3486 33.4203 34.4465 33.3713 34.4954 33.3223C35.2294 32.7832 36.0612 32.4401 36.7462 31.901C37.2844 31.4599 37.7248 31.0188 38.263 30.5777C38.6055 30.2837 38.8502 29.9406 38.9481 29.4505Z" fill="white"/>
<path d="M14.8362 24.0547C14.9279 23.7051 14.8362 23.3991 14.8362 23.0494C14.7445 21.6507 15.0196 20.3394 15.3406 18.9844C15.4323 18.6785 15.4782 18.3288 15.7991 18.1977C16.2576 17.9791 16.7162 17.9791 17.1747 18.0228C17.4956 18.0665 17.6332 18.4162 17.7249 18.6785C18 19.4215 18 20.2083 18 20.9951C17.9541 22.7435 17.5873 24.4044 17.3122 26.1091C17.2664 26.5462 17.083 26.9833 16.8995 27.3767C16.762 27.6826 16.5327 27.9449 16.1659 27.9449C15.2947 28.0323 14.4235 28.076 13.5982 27.5952C12.9104 27.2018 12.2685 26.6773 11.5808 26.2839C11.0305 25.978 10.572 25.5846 10.1135 25.1912C9.37986 24.5793 8.78379 23.9236 8.27942 23.1805C8.09601 22.962 8.05017 22.656 8.00432 22.3938C7.95847 21.8256 8.27942 21.4759 8.87549 21.3885C9.97593 21.301 10.9847 21.5196 11.9476 22.0004C12.9563 22.5249 13.965 23.0931 14.7445 23.9236C14.7445 24.0547 14.7904 24.0547 14.8362 24.0547ZM10.3428 22.656C10.3886 23.1805 10.8471 23.3554 11.1681 23.6614C12.2227 24.6667 13.369 25.5409 14.6528 26.3276C14.6987 26.1528 14.6528 26.0654 14.607 26.0217C14.0109 25.4534 13.5524 24.7541 12.9104 24.2296C12.4519 23.8362 11.9476 23.4865 11.4432 23.0931C11.1222 22.8746 10.7554 22.6997 10.3428 22.656Z" fill="white"/>
<path d="M30.1523 21.3214C30.5552 20.9507 30.8238 20.441 31.0925 20.0239C32.3013 18.124 33.9131 16.6411 35.6144 15.2045C36.0174 14.8802 36.4203 14.5094 36.9576 14.6021C37.6739 14.7411 38.3007 15.2045 38.7932 15.7143C39.1514 16.085 38.9723 16.6411 38.7932 17.1045C38.3455 18.3557 37.6739 19.4215 36.868 20.441C35.1667 22.6653 33.0624 24.5189 31.1373 26.5115C30.6448 27.0213 30.018 27.4383 29.3912 27.7627C28.8987 27.9944 28.4062 28.1334 27.9585 27.809C26.7944 27.1139 25.7199 26.3262 25.1826 24.936C24.7349 23.7311 24.4215 22.4799 24.0186 21.2751C23.7052 20.3483 23.4813 19.4215 23.3022 18.4483C23.0336 16.9655 22.944 15.5289 23.0336 14.046C23.0783 13.5826 23.2574 13.1656 23.4813 12.7485C23.929 11.9607 24.7349 11.7754 25.4513 12.2851C26.8392 13.2119 27.8689 14.4167 28.5853 15.9923C29.3464 17.6606 29.9732 19.3288 30.0627 21.1824C30.0627 21.2287 30.1075 21.2751 30.1523 21.3214ZM26.078 15.2045C25.6303 15.946 26.0333 16.6411 26.078 17.2898C26.3467 19.6068 26.9287 21.8775 27.6898 24.1018C27.9137 23.9165 27.9585 23.7775 27.9137 23.6384C27.7794 22.3409 27.8689 20.997 27.6451 19.6995C27.466 18.7264 27.1973 17.7996 26.9735 16.8264C26.8392 16.2704 26.6153 15.6679 26.078 15.2045Z" fill="white"/>
</svg>
