<svg xmlns="http://www.w3.org/2000/svg" viewBox="0 0 80 80"><defs><style>.cls-1,.cls-2{fill:#76b39d;}.cls-1{opacity:0.1;}</style></defs><circle class="cls-1" cx="40" cy="40" r="40"/><path class="cls-2" d="M40.47,43a12.76,12.76,0,0,0,1.64-3.41c2-4.88,5.18-9,8.51-13,.76-.92,1.57-2,2.92-2a8.38,8.38,0,0,1,4.76,1.71c1,.71.82,2,.64,3.18a27.25,27.25,0,0,1-3,8.39c-3,5.84-7.17,11-10.84,16.36A16.31,16.31,0,0,1,41.49,58a3.45,3.45,0,0,1-3.38.8c-3-1.11-5.88-2.3-7.73-5.31-1.56-2.53-2.81-5.21-4.31-7.75a45.37,45.37,0,0,1-3-6.12,39.72,39.72,0,0,1-2.6-9.87A6.77,6.77,0,0,1,21,26.56a3.21,3.21,0,0,1,4.47-2,19.26,19.26,0,0,1,8.94,7c2.47,3.44,4.72,6.94,5.75,11.1C40.17,42.79,40.32,42.87,40.47,43ZM28.18,31c-.74,1.89.48,3.29.94,4.74a73.61,73.61,0,0,0,6.8,14.71,1,1,0,0,0,.33-1.2c-.94-2.9-1.28-5.94-2.41-8.83-.83-2.13-1.92-4.13-2.83-6.2A6.47,6.47,0,0,0,28.18,31Z"/></svg>
