<svg id="Calque_1" data-name="Calque 1" xmlns="http://www.w3.org/2000/svg" viewBox="0 0 96 80"><defs><style>.cls-1{fill:#1e1f44;}.cls-2{fill:#fff;}.cls-3{fill:#1e2042;}.cls-4{fill:#82b09d;}.cls-5{fill:#eb611b;}</style></defs><path class="cls-1" d="M2.38,20.66,54,5.75a.37.37,0,0,1,.18,0l38.41,7.4a.38.38,0,0,1,.08.72L45.45,34.7a.36.36,0,0,1-.27,0L2.37,21.39A.38.38,0,0,1,2.38,20.66Z"/><path class="cls-1" d="M28.21,11.55h.51C28.7,11.48,28.56,11.47,28.21,11.55Z"/><path class="cls-1" d="M38.94,34.48h-.12C38.9,34.49,38.93,34.49,38.94,34.48Z"/><path class="cls-1" d="M47.79,10.36h0l-.11.07Z"/><path class="cls-1" d="M23.56,17c6.37-1.68,8.22-1.6,14.72-3.72,3.14-.86,6.44-2,9.48-2.91,1.33-.86,4-1.16,5.63-2l.74.06s0-.06,0-.09.09-.1.14-.09h.07l.1,0a2.32,2.32,0,0,1,.37.13l0,.07c.94,0,1.94.29,2.41.28l0,.07,1.1.17-.21.07a24.78,24.78,0,0,1,4.66.77l-.06-.33c3,.94,4.24.51,6.93,1.45l-.06.07c3.65-.15,5.42,1.62,9.17,1.54-.47,0,.16.19.11.26,1.67.23,3.45.53,3.6-.08,1.21.24,1,.38,1.06.65,0-.14.31-.18.68-.17a1.86,1.86,0,0,1,.66,0l-.26,0,1.32.16a2,2,0,0,0,.39-.45c.47.19,0,.34-.07.45s0,.09.27.1l.77-.28c.54.14.61.35.41.52a.7.7,0,0,1-.19.13l-.28.18a1.22,1.22,0,0,1-.55.21l-.56.11a7.71,7.71,0,0,0-1.47.7l-.19.11-.1.06,0,0-.18.09-1.4.68-2.81,1.38a90.14,90.14,0,0,1-11,4.71L68.4,22c-.32-.37-1.63,1.48-2.07,1.2l-.72.55c-.26,0-.77.15-.41-.12a3.55,3.55,0,0,0-1.22.75l-.92.09c-3,1.08-5.29,2.7-8.43,4a35,35,0,0,0-4.49,1.69c-.83.36-1.69.76-2.55,1.17l-1.28.63-.64.32-.16.08-.07,0-.09.05c-.06,0-.13.12-.21.11l-.23,0h-.06l-.18,0-.36-.09-.71-.17L41,31.59c-6.11-1.17-12.42-5.09-18.7-6.2a1.16,1.16,0,0,0-.74-.09l-5.51-1.79s-6.7-2.13-11-3c-.54-.11-1-.2-1.48-.26L3,20.17H2.76c-.08.28-.17.56-.26.84,0,.06,0,.05,0,.05s0,0,0,0,0,0,0,0,0,0,0,0l.12.42v0a.23.23,0,0,0-.09-.26.57.57,0,0,1,0-.14l0,0v0c-.06-.05-.18,0-.21.12a.25.25,0,0,0,.08.24l.28.22c.21.15.45.32.73.5,1.1.73,2.79,1.69,5.19,2.95l-.17.05a22.88,22.88,0,0,0,7.09,2c.14.7,2.47.83,3.11,1.25l-.08,0c2,.11,3.69,1.57,5.59,1.71a.59.59,0,0,1-.58.06c1.32.33,3.13.74,3.12,1.12,3.13.88,7.4,2.38,9.56,2.44l-.17.06c1.25,0,1.48.4,2.81.6,0,.07.14.12.12.13,1.34,0,3.61,1.06,4.65,1.22V36l.61.18a6.72,6.72,0,0,0,.71.18,1.7,1.7,0,0,0,.71,0,4.23,4.23,0,0,0,.68-.24l.84-.38-.85.33a2.68,2.68,0,0,1-.43.14.81.81,0,0,1,.37-.36,3.84,3.84,0,0,1,.35-.17c.13,0,.31-.11.41-.13l.81-.19a5,5,0,0,0,1.91-.83c1.63-.63,2.68-2.7,4.47-3.13.66-.64-.49.77.59,0,.18.3-.46.44,0,.56,1.09-.66,2-.51,3.38-1.36l.17.23c1.66-1.28,3.66-1.23,4.71-2.21,1.84-1.05,1.62.17,3.41-1.2h.93c.88-.32.43-.68,1.45-.94,0,.24,1.28-.36.81.09,2.3-.62,4.16-2.4,7.24-3.09.44-.68,2-1.07,2.3-1.58.15.15,2.87-1.23,1.44-.13-.13.09-.37.19-.39.11l-.08.33c1.82-.25,2.83-1.55,4.46-2.18-.51.13-1.13.43-.79.07l1.5-.62-.21.34.56-.21.29-.11.38-.15,2.06-.83-.76,0c1-.35,1.79-.54,2.6-.8a8.72,8.72,0,0,0,2.43-1.17c.32-.26-.31-.09-.74,0s-.69.15.19-.28a6.52,6.52,0,0,0,1.67-.91,7.45,7.45,0,0,0,1-1,3.18,3.18,0,0,0,.58-.86,1.5,1.5,0,0,0-.07-.82l-.18-.35a.44.44,0,0,1-.42,0c-.14-.07-.29-.2-.47-.32l.38-.13a4.61,4.61,0,0,1-.47-.29,2.09,2.09,0,0,1-.29-.23.24.24,0,0,1-.08-.17.26.26,0,0,1,0-.15c0-.18.38-.42-.86-.73l-1-.14.63-.07c-.64.07-1.24.14-1.81.22a10.56,10.56,0,0,1-1.91-.21A2.73,2.73,0,0,1,88,9.88a3.1,3.1,0,0,0-.89-.28,13.48,13.48,0,0,0-2.06-.13c.72.12.83.29.55.38a1.77,1.77,0,0,1-.63.06h-.22l-.16,0a2.41,2.41,0,0,1-.35-.07l.31-.21a5.42,5.42,0,0,1-1.15-.11c.36-.08.25-.34-.59-.46l.62-.21L81.8,9c-1.16-.51-3.15-.53-3.58-1,0,0-2.57-.68-3.24-.4.57-.15-.85-.52-.38-.73a7,7,0,0,1-3.51-.46h.16c-2.89-.87-5.13-.55-7.71-1.43.07.33-1.3-.11-1,.35-2.82-.13-4.84-1.76-6.07-.73a3.82,3.82,0,0,1-1.26-.37,2.86,2.86,0,0,0-1.3-.37,1.59,1.59,0,0,1,.48-.07,2.29,2.29,0,0,0-1,.13l-2.35.75c-.59.18-1.14.33-1.9.54-.81.36-.78,1-2.34,1.26.43-.37-.18-.15-.75,0,.35-.14.44-.26-.35-.19a1.36,1.36,0,0,1-.37.27s-.05,0,0-.05c-.93.35-.74.37-.29.27,0,0,0,.08.19.1-1.07,0-2.74.81-3,.46-2.82.92-4.75,1.9-7.07,2.73-.33-.12.18-.45.84-.73l-1.66.56c-.07-.29.92-.44,1.42-.65-2.13.13-4,1.65-6.47,1.91l-.42.36h-.15c0,.11-.44.42-.78.56-.4-.15-.14-.57-1.29-.22a14.62,14.62,0,0,0-3.75,1.35c.66-.14.49,0,.24.22-.58.18-1,0-1.41.26l-.15-.31c.32.24-1.42.77-1.6,1-.4-.15.84-.47.94-.7l-3.49,1.06c-1.17.61.32.25-.19.71a15.15,15.15,0,0,1-3.41,1.08l.49.18A13.83,13.83,0,0,1,9.6,18c-14.68,6.83-2.3,4.2-2.3,4.2C13.54,21.05,16.42,19.3,23.56,17Z"/><path class="cls-2" d="M82.73,8.79s.06,11.29-1.86,12.47-10.46,5-14.88,5.1-19.36-3.42-20.37-3.29-3.7,6.38-13.13,7.79S19.3,28.24,19.3,28.24L13.17,13.76s9.29,2.07,17.81.75a54.11,54.11,0,0,0,14.71-4.45l20,1.33Z"/><path class="cls-3" d="M82.77,9.28c0,.47,0,.94.07,1.41a1.47,1.47,0,0,1,0,.21l-.06,1.89c0,.57,0,1.14-.07,1.71a11.65,11.65,0,0,0,0,1.32,4.7,4.7,0,0,1-.09,1.06c-.1.59-.19,1.18-.32,1.76a4.33,4.33,0,0,1-.57,1.47c-.25.39-.53.78-.81,1.15a2.09,2.09,0,0,1-.56.65c-.44.23-.8.57-1.27.78a17.93,17.93,0,0,1-2.13,1,2.89,2.89,0,0,0-.58.35,1.74,1.74,0,0,1-.26.15A5.49,5.49,0,0,0,74.3,25a2,2,0,0,1-.48.2l-.59.23a6.13,6.13,0,0,1-1.66.66,1.67,1.67,0,0,0-.2.08l-1.74.47a13.05,13.05,0,0,0-1.4.36,2.93,2.93,0,0,1-.71.12c-.32,0-.65.1-1,.13s-.42,0-.63,0l-.51,0a5,5,0,0,1-1.64-.08A7,7,0,0,0,62.63,27a10.64,10.64,0,0,1-1.09-.24c-.33-.09-.63-.33-1-.29a4.62,4.62,0,0,1-.58-.12c-.76-.11-1.52-.18-2.28-.31s-1.32-.25-2-.42a6.33,6.33,0,0,0-2.16-.25,18.2,18.2,0,0,0-2.21-.13.86.86,0,0,1-.21,0l-3.66-.84a9,9,0,0,1-1-.31c-.21-.07-.3,0-.37.2a3.84,3.84,0,0,1-1,1.85,5.7,5.7,0,0,1-.81.66,4,4,0,0,0-1.11.8,2.27,2.27,0,0,1-.59.4q-.57.35-1.14.66c-.63.35-1.24.74-1.89,1s-1.09.36-1.64.54c0,0-.09,0-.12,0-.41.28-.92.35-1.34.61s-.82.11-1.22.24-.77.2-1.16.29a3.19,3.19,0,0,0-1.1.33.11.11,0,0,1-.08,0l-1.19.07a1,1,0,0,0-.29,0,3.73,3.73,0,0,1-2.19.18c-.34-.05-.7.13-1-.08a.08.08,0,0,0-.08,0c-.12.14-.27.07-.4.06l-1.55-.13c-.65-.07-1.31-.12-2-.23a8.06,8.06,0,0,1-1.27-.38,5.37,5.37,0,0,1-1.47-.7,17.76,17.76,0,0,0-1.57-1.17,3.49,3.49,0,0,0-1.21-.63.78.78,0,0,1-.61-.59c-.06-.22-.06-.45-.11-.66-.12-.55-.28-1.08-.45-1.61-.08-.29-.24-.56-.3-.85A34.51,34.51,0,0,0,16,21.47c-.32-1-.74-2-1.11-3s-.68-1.93-1.09-2.86c-.27-.61-.38-1.27-.63-1.89a1.2,1.2,0,0,0-.27-.48,13.92,13.92,0,0,1-1.49-1.58c-.1-.11-.15-.26-.24-.36a2.53,2.53,0,0,1-.53-1.94A7.44,7.44,0,0,1,10.87,8a1.31,1.31,0,0,1,.37-.89c.68-.52,1.29-1.13,2-1.64a10.11,10.11,0,0,1,3.55-1.69l2.7-.66A5.91,5.91,0,0,1,20.41,3a1.82,1.82,0,0,0,.94-.2,2.59,2.59,0,0,1,.75-.2c.18,0,.37-.07.55-.12.62-.18,1.24-.35,1.85-.56S26,1.7,26.74,1.38a.76.76,0,0,1,.26,0c.22,0,.43,0,.64-.08A31.61,31.61,0,0,1,32.07.6c.27,0,.54,0,.81,0L35,.35c.32,0,.63,0,1,0a20.87,20.87,0,0,1,3,0c.44,0,.87.08,1.31.12s.93.09,1.39.15.84.17,1.26.23a8.59,8.59,0,0,1,2.54.62l0,0c.52,0,.86.42,1.32.56.08,0,.13.14.2.21a2,2,0,0,0,.36.35,1,1,0,0,1,.49.77c.05.35,0,.71.08,1.06a3.1,3.1,0,0,0,.1.53l1.32-.31c.32-.08.64-.16,1-.26A3.43,3.43,0,0,1,51.15,4a5.37,5.37,0,0,0,1-.2c.17,0,.33-.08.5-.12l.63-.1.92-.21,1.6-.31A.52.52,0,0,0,56,3a1.68,1.68,0,0,1,1.5,0,1.17,1.17,0,0,0,.66.12c.26,0,.52,0,.77,0a4,4,0,0,0,.85,0A4.24,4.24,0,0,1,61,3.11a12.72,12.72,0,0,1,1.38,0,6.39,6.39,0,0,1,1.78.22,4.87,4.87,0,0,0,1.91.27c1,0,2,0,3,0,.72,0,1.43,0,2.14,0s1.34.05,2,.05a5.49,5.49,0,0,0,1.46,0s.11,0,.16,0l.69.07c.47,0,.94.07,1.42.09s.91,0,1.36,0c.17,0,.34,0,.51,0,.33,0,.65,0,1,0,.51.05,1,.12,1.52.2a2.79,2.79,0,0,1,.82.18,4.13,4.13,0,0,1,2,2.44.81.81,0,0,1,0,.92.56.56,0,0,0-.1.28.63.63,0,0,1-.36.46c-.27.17-.54.33-.83.49A4.6,4.6,0,0,1,82.77,9.28Zm-37.38.84a3.08,3.08,0,0,1-1.08.81c-.63.39-1.29.74-2,1.08a5.48,5.48,0,0,1-.88.33c-.73.21-1.46.44-2.2.62s-1.23.24-1.85.37c-.45.1-.89.23-1.33.34s-.73.18-1.09.25c-.89.17-1.77.36-2.67.48a17.55,17.55,0,0,1-2.8.34,4.93,4.93,0,0,0-.85.1,4.15,4.15,0,0,1-1.27,0,5.93,5.93,0,0,0-1.23.16c-.5,0-1,.06-1.51.07-.8,0-1.6,0-2.41,0-.62,0-1.25-.06-1.88-.07a5.35,5.35,0,0,0-1.44,0,1.26,1.26,0,0,1-.58,0,15.69,15.69,0,0,1-3-.63,1.61,1.61,0,0,1-.48-.27c-.17-.16-.31-.15-.54,0l.21.77c.07.26.14.53.23.78s.19.32.24.49c.18.51.35,1,.51,1.55a3.36,3.36,0,0,0,.14.45,10.52,10.52,0,0,1,.71,2c.15.58.48,1.11.64,1.69.21.77.65,1.43.91,2.17s.62,1.65.94,2.47c.11.29.26.57.37.86a1.14,1.14,0,0,1,.08.89,3.44,3.44,0,0,0,1.13.57c.38.07.75.18,1.13.28a1.28,1.28,0,0,1,.36.13,3.2,3.2,0,0,0,1.46.48,11.55,11.55,0,0,0,2,.29c.48,0,1,.11,1.44.14s.73,0,1.1,0h.38a2.18,2.18,0,0,0,.88,0,.87.87,0,0,1,.39,0,2.19,2.19,0,0,0,.95-.09,3.42,3.42,0,0,1,.63-.09,5.31,5.31,0,0,0,1.53-.29l1.72-.49c.22-.06.43-.16.64-.24a1.09,1.09,0,0,1,.24-.07,4.63,4.63,0,0,0,1.5-.44A11.79,11.79,0,0,1,38,28a2.44,2.44,0,0,0,.56-.28,4.73,4.73,0,0,1,1.17-.53,2.46,2.46,0,0,0,.32-.19c.28-.18.54-.37.83-.52a2,2,0,0,0,.81-.61.52.52,0,0,1,.23-.18,8.66,8.66,0,0,1,1.14-.57c.37-.14.55-.48.84-.71s.34-.4.56-.58a.72.72,0,0,0,.26-.63,2.66,2.66,0,0,1,.11-1,5.42,5.42,0,0,0,0-1.07c0-.62.06-1.23.1-1.85a2.86,2.86,0,0,0,0-1,.49.49,0,0,1,0-.21c0-.49.06-1,.13-1.47.11-.75,0-1.5.06-2.25a1.45,1.45,0,0,0-.07-.45,4.05,4.05,0,0,1,.07-1.1c0-.31,0-.63.1-.94s.17-.85.25-1.27c0-.18.09-.35.13-.53L45.6,10C45.53,10,45.43,10.06,45.39,10.12Zm35.83,7.49c0-.48.1-1,.13-1.45a7.82,7.82,0,0,1,0-.84,8.36,8.36,0,0,0,0-1.5c0-.78.06-1.56.1-2.34,0-.44,0-.88,0-1.32s0-.62.06-.95a1.38,1.38,0,0,0-.22,0L79.24,10l-.24.09-2.77.79c-.22.06-.42.18-.64.25-1,.27-1.92.53-2.88.82l-2.91.9-1.16.31-1.28.39-.37.07a5.11,5.11,0,0,0-.93.14,5.54,5.54,0,0,1-1.35.16,5.26,5.26,0,0,0-1,.13,4.8,4.8,0,0,1-.85,0c-.81,0-1.63.1-2.44.12-.54,0-1.08,0-1.63,0a4.13,4.13,0,0,0-.5,0,5,5,0,0,1-1.49,0c-.32,0-.65,0-1,0a1.87,1.87,0,0,1-.32-.08,1.44,1.44,0,0,0-.4-.09,14.18,14.18,0,0,1-2.26-.22,20.28,20.28,0,0,0-2.45-.32c-.47,0-.87-.23-1.33-.26S48,13,47.37,12.94a1.73,1.73,0,0,0-.08.27,2.24,2.24,0,0,1-.16.74c-.1.2,0,.49-.06.72a4.88,4.88,0,0,0-.11,1.2.19.19,0,0,1,0,.13c-.23.29-.13.64-.18,1s-.07.65-.1,1c-.08.82-.17,1.65-.24,2.47,0,.44,0,.88,0,1.32a3.62,3.62,0,0,1-.06.46c0,.15,0,.25.16.29L48,23c.28.09.54.21.81.28a4.62,4.62,0,0,0,.65.06,3.92,3.92,0,0,1,.59.05,15.27,15.27,0,0,0,2.12.23A7,7,0,0,1,54,23.8a1.13,1.13,0,0,0,.41,0,8.19,8.19,0,0,1,1.76.48c.45.13.93.18,1.39.28s.83.21,1.25.26a3.8,3.8,0,0,0,.89,0,.54.54,0,0,1,.44.11.67.67,0,0,0,.32.1,3.42,3.42,0,0,0,.45,0,3.19,3.19,0,0,1,.95.18,2.8,2.8,0,0,0,.88.11l.72.1.56,0s.09,0,.12,0a7.4,7.4,0,0,0,1.63,0H66l2.1-.27c.34-.05.68-.14,1-.19a.89.89,0,0,1,.58,0,.2.2,0,0,0,.17,0,17.56,17.56,0,0,1,1.89-.51c.5-.19,1-.43,1.5-.62a6.25,6.25,0,0,0,1-.58,9.17,9.17,0,0,1,1.16-.49,1.07,1.07,0,0,0,.35-.23,2,2,0,0,1,1-.6c.32-.11.62-.29.93-.43a6.56,6.56,0,0,0,1.43-1,1.84,1.84,0,0,1,1.35-.54A4.77,4.77,0,0,0,81.22,17.61ZM45.68,3.17a1,1,0,0,0-.6-.28.5.5,0,0,1-.21-.05l-1.55-.59c-.12,0-.28,0-.4,0A5.49,5.49,0,0,0,41.79,2c-.52-.07-1-.23-1.55-.32s-1-.17-1.48-.24-1.08-.14-1.62-.2c-.27,0-.54,0-.81,0a3.05,3.05,0,0,1-.43,0A10.07,10.07,0,0,0,33,1.34c-.79.13-1.6.2-2.4.3-.17,0-.34.06-.51.09L28.53,2a10.17,10.17,0,0,0-1.48.26c-.8.27-1.65.27-2.43.55a10.12,10.12,0,0,1-1.93.43A7.28,7.28,0,0,0,21,3.65a.32.32,0,0,1-.17,0c-.47-.13-.85.14-1.27.28L17,4.78l-.91.28c-.26.1-.52.23-.78.34l-1.15.44L13.91,6c-.24.16-.48.31-.7.49s-.33.31-.5.46-.48.44-.74.64a.72.72,0,0,0-.32.7,1.23,1.23,0,0,1-.05.25,6.45,6.45,0,0,0,2.09,1.1,4.71,4.71,0,0,1,.52.21,14.09,14.09,0,0,0,3,.85c.63.12,1.27.16,1.9.22S20.4,11,21,11s1.29-.09,1.93-.05c.79.05,1.56-.16,2.35-.17a11.06,11.06,0,0,0,1.13-.18c.34,0,.7,0,1-.06.54-.1,1.09,0,1.63-.18a18.37,18.37,0,0,1,1.83-.3c.92-.15,1.84-.32,2.75-.48h.05c.68-.48,1.54-.38,2.29-.68a10.56,10.56,0,0,1,1.5-.35l.69-.21c.23-.06.47-.09.7-.15s.68-.19,1-.31c.67-.23,1.34-.45,2-.71.38-.16.74-.37,1.11-.55a2.82,2.82,0,0,1,.46-.23A6.59,6.59,0,0,0,45.85,5,.94.94,0,0,1,46,4.89,1.78,1.78,0,0,0,46.8,4Zm2.64,3.66a.73.73,0,0,1-.2.58,5.59,5.59,0,0,0-.61,1,1.61,1.61,0,0,1-.39.5.35.35,0,0,0,.11.63c.21.07.45.09.67.14s.4.13.61.17l1.91.3c.88.14,1.75.29,2.64.39s1.86.12,2.78.24a5.29,5.29,0,0,1,1.31.17.47.47,0,0,0,.17,0L59,11c.34,0,.68,0,1,0,1,0,2,.06,2.92.06A8.37,8.37,0,0,0,64.34,11c.69-.1,1.38-.24,2.07-.37a3.59,3.59,0,0,0,.51-.2l.12-.05,1.1-.32c.43-.12.85-.26,1.27-.39a2.54,2.54,0,0,1,.37-.1,18.07,18.07,0,0,0,2.81-.81c.6-.2,1.22-.35,1.81-.55a16.61,16.61,0,0,0,1.94-.7C76.89,7.2,77.47,7,78,6.73l.09,0a6,6,0,0,0,1.52-.54c.7-.23,1.39-.5,2.08-.77a3.1,3.1,0,0,1,.38-.09,1.24,1.24,0,0,0-.83-.11c-.34,0-.68,0-1,0s-.84,0-1.27,0l-1.76-.08-1.75-.12c-.11,0-.23,0-.34,0a5.09,5.09,0,0,1-.55,0l-.21,0L72,5c-.25,0-.51,0-.77-.07a10.86,10.86,0,0,1-1.28-.09,18.62,18.62,0,0,0-2-.21c-.62-.07-1.25-.14-1.87-.19s-1,0-1.42,0a.49.49,0,0,0-.21,0,3.74,3.74,0,0,1-1.52.21,3.82,3.82,0,0,1-.68-.06c-.13,0-.26,0-.39-.06-.6,0-1.2-.08-1.8-.06a8.91,8.91,0,0,1-1.7-.23,7,7,0,0,0-.8-.11.77.77,0,0,0-.32.09c-.2.08-.39.19-.59.26a26.7,26.7,0,0,1-3.28.83.43.43,0,0,0-.16,0,3.42,3.42,0,0,1-1.28.33c-.43.08-.83.23-1.25.35l-.45.11-1.91.35C48.33,6.6,48.31,6.72,48.32,6.83ZM47.18,5.69a2.06,2.06,0,0,0-.86.74s0,0,0,0c-.42.29-.86.57-1.26.88s-.87.25-1.26.5a7.4,7.4,0,0,1-1.23.51c-.16.06-.31.14-.47.21a4.52,4.52,0,0,1-1.27.36,1.11,1.11,0,0,0-.39.17,6.57,6.57,0,0,1-1.71.41l-2.84.58c-.1,0-.2.06-.3.07a7.35,7.35,0,0,0-1.84.38,2.16,2.16,0,0,1-.51.07l-3,.35c-1.16.12-2.32.22-3.48.33-.66.07-1.33.15-2,.2a12.9,12.9,0,0,1-2.15,0c-.82-.08-1.63.08-2.44,0l-1.8-.17c-.21,0-.43,0-.64,0-.39-.08-.78-.18-1.16-.28l-.17,0a11.39,11.39,0,0,1-2.45-.6,6,6,0,0,1-.85-.27c-.57-.26-1.12-.54-1.71-.83a1.56,1.56,0,0,0,0,.25c0,.24,0,.48.08.72a.83.83,0,0,0,.17.38c.31.32.64.62,1,.92a2.82,2.82,0,0,0,1.61.63,10.7,10.7,0,0,1,1.37.27.26.26,0,0,1,.11.07,1.67,1.67,0,0,0,1.08.55c.57.15,1.11.41,1.68.56a3.65,3.65,0,0,0,.46.07,4.5,4.5,0,0,0,.63.07,17.52,17.52,0,0,1,1.81.32c1.23.1,2.47.15,3.7.22a19,19,0,0,0,2.13-.12,3.54,3.54,0,0,1,.46,0,4.38,4.38,0,0,0,.51,0c.6-.07,1.2-.12,1.79-.24.77-.15,1.54-.36,2.3-.56a7.54,7.54,0,0,1,1.5-.31c.49,0,1-.17,1.45-.24s.9-.14,1.35-.2h.05l2.24-.59.25-.06a4.64,4.64,0,0,0,1.21-.29,17.78,17.78,0,0,0,2.22-.9A8.37,8.37,0,0,0,44,10c.54-.4,1.17-.68,1.71-1.07a5.08,5.08,0,0,0,1.45-1.12,3,3,0,0,1,.44-.43C47,6.92,47.29,6.26,47.18,5.69Zm0,5.67c.47.07.94.17,1.42.22a5.48,5.48,0,0,1,1.38.29,1.91,1.91,0,0,0,.58.06,7.39,7.39,0,0,1,.94,0,5.91,5.91,0,0,1,1.37.31,3.94,3.94,0,0,0,1,.07l1.14.09,1.06.1.51,0a6.3,6.3,0,0,0,1.23.07,20.9,20.9,0,0,1,2.09,0c.23,0,.45,0,.68-.07.05,0,.11,0,.16,0a20,20,0,0,0,3,0,6,6,0,0,0,.79-.18c.44,0,.88,0,1.32-.06s.58-.1.87-.14c.51-.07,1-.1,1.53-.19.35-.06.68-.21,1-.3.56-.16,1.13-.3,1.69-.47.35-.09.68-.22,1-.34s.83-.31,1.25-.44L76,9.61c.35-.11.69-.26,1-.36a21.8,21.8,0,0,0,2.24-.75c.83-.32,1.69-.54,2.53-.84a9.06,9.06,0,0,0,1.09-.52.32.32,0,0,0,.19-.39c-.07-.28-.14-.55-.22-.83a.22.22,0,0,0-.3-.16,5.52,5.52,0,0,1-.54.16,5.37,5.37,0,0,1-1.25.27,2.56,2.56,0,0,0-.88.33c-1.21.57-2.41,1.19-3.64,1.73-1,.43-2,.79-3,1.17-.66.25-1.32.49-2,.72a7.17,7.17,0,0,1-.83.17l-2.13.5a7.77,7.77,0,0,0-1.29.27,7,7,0,0,1-1.34.31c-.87.17-1.74.36-2.62.47a10.27,10.27,0,0,1-1.92,0,6.82,6.82,0,0,1-1.75-.13c-.77.1-1.52-.19-2.3-.13a4.11,4.11,0,0,1-.67-.12c-.41,0-.83,0-1.24-.07s-.56-.11-.84-.15-.77-.07-1.15-.12L52.45,11a1,1,0,0,0-.16,0,18.44,18.44,0,0,1-2.77-.48c-.79-.15-1.57-.34-2.39-.52Z"/><path class="cls-4" d="M46,4.89a.94.94,0,0,0-.18.12,6.59,6.59,0,0,1-2.33,1.36,2.82,2.82,0,0,0-.46.23c-.37.18-.73.39-1.11.55-.67.26-1.34.48-2,.71-.34.12-.68.22-1,.31s-.47.09-.7.15l-.69.21a10.56,10.56,0,0,0-1.5.35c-.75.3-1.61.2-2.29.68h-.05c-.91.16-1.83.33-2.75.48a18.37,18.37,0,0,0-1.83.3c-.54.14-1.09.08-1.63.18-.33.06-.69,0-1,.06a11.06,11.06,0,0,1-1.13.18c-.79,0-1.56.22-2.35.17-.64,0-1.29.06-1.93.05s-1.29,0-1.93-.09-1.27-.1-1.9-.22a14.09,14.09,0,0,1-3-.85,4.71,4.71,0,0,0-.52-.21,6.45,6.45,0,0,1-2.09-1.1,1.23,1.23,0,0,0,.05-.25.72.72,0,0,1,.32-.7c.26-.2.5-.42.74-.64s.32-.32.5-.46.46-.33.7-.49l.26-.14,1.15-.44c.26-.11.52-.24.78-.34L17,4.78,19.58,4c.42-.14.8-.41,1.27-.28a.32.32,0,0,0,.17,0,7.28,7.28,0,0,1,1.67-.41,10.12,10.12,0,0,0,1.93-.43c.78-.28,1.63-.28,2.43-.55A10.17,10.17,0,0,1,28.53,2L30,1.73c.17,0,.34-.07.51-.09.8-.1,1.61-.17,2.4-.3a10.07,10.07,0,0,1,2.95-.11,3.05,3.05,0,0,0,.43,0c.27,0,.54,0,.81,0,.54.06,1.08.12,1.62.2s1,.14,1.48.24,1,.25,1.55.32a5.49,5.49,0,0,1,1.13.21c.12,0,.28,0,.4,0l1.55.59a.5.5,0,0,0,.21.05,1,1,0,0,1,.6.28L46.8,4A1.78,1.78,0,0,1,46,4.89Zm-13.8.58c-.17-.3-.17-.31-.45-.27l-1.52.28c-.64.12-1.26.26-1.9.39l-1.05.22c-.54.11-1.09.2-1.63.32-.81.17-1.62.36-2.43.55a2.45,2.45,0,0,1-.37.08,3.14,3.14,0,0,0-1.42.59c-.24.13-.22.39,0,.5a5,5,0,0,0,1.12.4c.72.12,1.45.15,2.18.24S26.27,9,27,9.08a1.1,1.1,0,0,0,1.09-.32.45.45,0,0,1,.31-.11l3.48-.57c.9-.16,1.78-.37,2.68-.55s1.61-.29,2.41-.45A1.89,1.89,0,0,0,37.36,7a1.78,1.78,0,0,0-.17-1,.57.57,0,0,0-.48-.37,12.61,12.61,0,0,0-2.3-.07c-.52,0-1,0-1.55-.06a4.68,4.68,0,0,0-.64,0Z"/><path class="cls-5" d="M50.24,6.1,50.69,6c.42-.12.82-.27,1.25-.35a3.42,3.42,0,0,0,1.28-.33.43.43,0,0,1,.16,0,26.7,26.7,0,0,0,3.28-.83c.2-.07.39-.18.59-.26a.77.77,0,0,1,.32-.09,7,7,0,0,1,.8.11,8.91,8.91,0,0,0,1.7.23c.6,0,1.2,0,1.8.06.13,0,.26,0,.39.06a3.82,3.82,0,0,0,.68.06,3.74,3.74,0,0,0,1.52-.21.49.49,0,0,1,.21,0c.47,0,1,0,1.42,0s1.25.12,1.87.19a18.62,18.62,0,0,1,2,.21,10.86,10.86,0,0,0,1.28.09c.26,0,.52.06.77.07l2.4,0,.21,0a5.09,5.09,0,0,0,.55,0c.11,0,.23,0,.34,0l1.75.12L79,5.25c.43,0,.85,0,1.27,0s.68,0,1,0a1.24,1.24,0,0,1,.83.11,3.1,3.1,0,0,0-.38.09c-.69.27-1.38.54-2.08.77a6,6,0,0,1-1.52.54l-.09,0c-.56.25-1.14.47-1.69.74a16.61,16.61,0,0,1-1.94.7c-.59.2-1.21.35-1.81.55a18.07,18.07,0,0,1-2.81.81,2.54,2.54,0,0,0-.37.1c-.42.13-.84.27-1.27.39l-1.1.32-.12.05a3.59,3.59,0,0,1-.51.2c-.69.13-1.38.27-2.07.37a8.37,8.37,0,0,1-1.41.11C62,11.07,61,11,60,11c-.34,0-.68,0-1,0l-1.67,0a.47.47,0,0,1-.17,0,5.29,5.29,0,0,0-1.31-.17c-.92-.12-1.86-.13-2.78-.24s-1.76-.25-2.64-.39l-1.91-.3c-.21,0-.41-.12-.61-.17s-.46-.07-.67-.14a.35.35,0,0,1-.11-.63,1.61,1.61,0,0,0,.39-.5,5.59,5.59,0,0,1,.61-1,.73.73,0,0,0,.2-.58c0-.11,0-.23,0-.38Zm.77,2,1.49.21.21,0c1.33.06,2.65.28,4,.4l2.9.28,2.55.29c.26,0,.52,0,.78,0l.68.06a1.14,1.14,0,0,0,.74-.12,2.94,2.94,0,0,1,.74-.13c.09,0,.19,0,.26,0a13.68,13.68,0,0,1,1.44-.33c.51-.16,1-.26,1.57-.39s1-.24,1.42-.33.73-.12,1.09-.18c0,0,.1,0,.12,0,.32-.33.79-.2,1.17-.37a1.84,1.84,0,0,1,.42-.08c.28,0,.34-.13.3-.41a1.56,1.56,0,0,0-1.05-1.16,2.53,2.53,0,0,0-1.06,0,20.47,20.47,0,0,1-2.35,0c-.32,0-.63,0-1,0s-.65-.08-1-.1c-.65,0-1.31-.1-2-.08-1,0-2-.12-3-.12a10,10,0,0,0-2.18.06.78.78,0,0,1-.48-.12.56.56,0,0,0-.52,0c-.57.2-1.15.35-1.73.52l-1.43.44c-.48.14-1,.26-1.44.41l-2.5.8a3.25,3.25,0,0,0-.37.11,2.33,2.33,0,0,0-.31.26C50.78,8,50.89,8.06,51,8.08Z"/><path class="cls-4" d="M47.6,7.4c-.58-.48-.31-1.14-.42-1.71a2.06,2.06,0,0,0-.86.74s0,0,0,0c-.42.29-.86.57-1.26.88s-.87.25-1.26.5a7.4,7.4,0,0,1-1.23.51c-.16.06-.31.14-.47.21a4.52,4.52,0,0,1-1.27.36,1.11,1.11,0,0,0-.39.17,6.57,6.57,0,0,1-1.71.41l-2.84.58c-.1,0-.2.06-.3.07a7.35,7.35,0,0,0-1.84.38,2.16,2.16,0,0,1-.51.07l-3,.35c-1.16.12-2.32.22-3.48.33-.66.07-1.33.15-2,.2a12.9,12.9,0,0,1-2.15,0c-.82-.08-1.63.08-2.44,0l-1.8-.17c-.21,0-.43,0-.64,0-.39-.08-.78-.18-1.16-.28l-.17,0a11.39,11.39,0,0,1-2.45-.6,6,6,0,0,1-.85-.27c-.57-.26-1.12-.54-1.71-.83a1.56,1.56,0,0,0,0,.25c0,.24,0,.48.08.72a.83.83,0,0,0,.17.38c.31.32.64.62,1,.92a2.82,2.82,0,0,0,1.61.63,10.7,10.7,0,0,1,1.37.27.26.26,0,0,1,.11.07,1.67,1.67,0,0,0,1.08.55c.57.15,1.11.41,1.68.56a3.65,3.65,0,0,0,.46.07,4.5,4.5,0,0,0,.63.07,17.52,17.52,0,0,1,1.81.32c1.23.1,2.47.15,3.7.22a19,19,0,0,0,2.13-.12,3.54,3.54,0,0,1,.46,0,4.38,4.38,0,0,0,.51,0c.6-.07,1.2-.12,1.79-.24.77-.15,1.54-.36,2.3-.56a7.54,7.54,0,0,1,1.5-.31c.49,0,1-.17,1.45-.24s.9-.14,1.35-.2h.05l2.24-.59.25-.06a4.64,4.64,0,0,0,1.21-.29,17.78,17.78,0,0,0,2.22-.9A8.37,8.37,0,0,0,44,10c.54-.4,1.17-.68,1.71-1.07a5.08,5.08,0,0,0,1.45-1.12A3,3,0,0,1,47.6,7.4Z"/><path class="cls-5" d="M47.13,10l0,1.4c.47.07.94.17,1.42.22a5.48,5.48,0,0,1,1.38.29,1.91,1.91,0,0,0,.58.06,7.39,7.39,0,0,1,.94,0,5.91,5.91,0,0,1,1.37.31,3.94,3.94,0,0,0,1,.07l1.14.09,1.06.1.51,0a6.3,6.3,0,0,0,1.23.07,20.9,20.9,0,0,1,2.09,0c.23,0,.45,0,.68-.07.05,0,.11,0,.16,0a20,20,0,0,0,3,0,6,6,0,0,0,.79-.18c.44,0,.88,0,1.32-.06s.58-.1.87-.14c.51-.07,1-.1,1.53-.19.35-.06.68-.21,1-.3.56-.16,1.13-.3,1.69-.47.35-.09.68-.22,1-.34s.83-.31,1.25-.44L76,9.61c.35-.11.69-.26,1-.36a21.8,21.8,0,0,0,2.24-.75c.83-.32,1.69-.54,2.53-.84a9.06,9.06,0,0,0,1.09-.52.32.32,0,0,0,.19-.39c-.07-.28-.14-.55-.22-.83a.22.22,0,0,0-.3-.16,5.52,5.52,0,0,1-.54.16,5.37,5.37,0,0,1-1.25.27,2.56,2.56,0,0,0-.88.33c-1.21.57-2.41,1.19-3.64,1.73-1,.43-2,.79-3,1.17-.66.25-1.32.49-2,.72a7.17,7.17,0,0,1-.83.17l-2.13.5a7.77,7.77,0,0,0-1.29.27,7,7,0,0,1-1.34.31c-.87.17-1.74.36-2.62.47a10.27,10.27,0,0,1-1.92,0,6.82,6.82,0,0,1-1.75-.13c-.77.1-1.52-.19-2.3-.13a4.11,4.11,0,0,1-.67-.12c-.41,0-.83,0-1.24-.07s-.56-.11-.84-.15-.77-.07-1.15-.12L52.45,11a1,1,0,0,0-.16,0,18.44,18.44,0,0,1-2.77-.48C48.73,10.33,48,10.14,47.13,10Z"/><path class="cls-3" d="M32.23,5.47c-.17-.3-.17-.31-.45-.27l-1.52.28c-.64.12-1.26.26-1.9.39l-1.05.22c-.54.11-1.09.2-1.63.32-.81.17-1.62.36-2.43.55a2.45,2.45,0,0,1-.37.08,3.14,3.14,0,0,0-1.42.59c-.24.13-.22.39,0,.5a5,5,0,0,0,1.12.4c.72.12,1.45.15,2.18.24S26.27,9,27,9.08a1.1,1.1,0,0,0,1.09-.32.45.45,0,0,1,.31-.11l3.48-.57c.9-.16,1.78-.37,2.68-.55s1.61-.29,2.41-.45A1.89,1.89,0,0,0,37.36,7a1.78,1.78,0,0,0-.17-1,.57.57,0,0,0-.48-.37,12.61,12.61,0,0,0-2.3-.07c-.52,0-1,0-1.55-.06a4.68,4.68,0,0,0-.64,0c.16.08.24.27.47.27a5.75,5.75,0,0,1,1.3.14,11.79,11.79,0,0,0,1.57.18,2.7,2.7,0,0,1,.39.08l0,.07-8,1.89a.7.7,0,0,0-.73-.23,1.25,1.25,0,0,1-.38,0c-.54-.08-1.08-.18-1.62-.22A3.69,3.69,0,0,1,24,7.43l3.82-.72c.15,0,.31,0,.46-.09l1.16-.29a3.08,3.08,0,0,1,.71-.14,11,11,0,0,0,1.81-.39A.33.33,0,0,0,32.23,5.47Z"/><path class="cls-3" d="M50.87,7.69a3.25,3.25,0,0,1,.37-.11l2.5-.8c.47-.15,1-.27,1.44-.41l1.43-.44c.58-.17,1.16-.32,1.73-.52a.56.56,0,0,1,.52,0,.78.78,0,0,0,.48.12,10,10,0,0,1,2.18-.06c1,0,2,.15,3,.12.66,0,1.32,0,2,.08.33,0,.66.08,1,.1s.63,0,1,0a20.47,20.47,0,0,0,2.35,0,2.53,2.53,0,0,1,1.06,0A1.56,1.56,0,0,1,72.87,7c0,.28,0,.36-.3.41a1.84,1.84,0,0,0-.42.08c-.38.17-.85,0-1.17.37,0,0-.08,0-.12,0-.36.06-.73.1-1.09.18s-1,.22-1.42.33-1.06.23-1.57.39a13.68,13.68,0,0,0-1.44.33c-.07,0-.17,0-.26,0a2.94,2.94,0,0,0-.74.13,1.14,1.14,0,0,1-.74.12l-.68-.06c-.26,0-.52,0-.78,0L59.59,9l-2.9-.28c-1.33-.12-2.65-.34-4-.4l-.21,0L51,8.08c-.12,0-.23-.07-.45-.13A2.33,2.33,0,0,1,50.87,7.69Zm18.23-1c-.31,0-.62-.07-.93-.08s-.88,0-1.32-.05-1.11-.11-1.66-.15c-.89-.07-1.77-.11-2.65-.17l-1-.1L60.13,6a2.52,2.52,0,0,0-.55-.08,2.35,2.35,0,0,0-1.1.15,5.5,5.5,0,0,1-1.56.45,10.28,10.28,0,0,0-1.32.35c-.71.17-1.4.4-2.12.51-.52.08-1,.24-1.57.37.13.17.22.27.41.2a.56.56,0,0,1,.25,0l1.5.08,2.27.14c1.47.1,2.94.23,4.42.32.88.06,1.77.07,2.66.12a1.68,1.68,0,0,1,.88.27.83.83,0,0,0,.65,0,10.66,10.66,0,0,1,1.54-.42c.19-.05.36-.17.54-.22l1.28-.36c.32-.08.63-.19.94-.27l1-.25c.11,0,.21-.08.4-.15A3.58,3.58,0,0,0,69.1,6.73Z"/><path class="cls-2" d="M32.23,5.47a.33.33,0,0,1-.32.33,11,11,0,0,1-1.81.39,3.08,3.08,0,0,0-.71.14l-1.16.29c-.15,0-.31.06-.46.09L24,7.43a3.69,3.69,0,0,0,1.25.19c.54,0,1.08.14,1.62.22a1.25,1.25,0,0,0,.38,0,.7.7,0,0,1,.73.23l8-1.89,0-.07a2.7,2.7,0,0,0-.39-.08A11.79,11.79,0,0,1,34,5.88a5.75,5.75,0,0,0-1.3-.14c-.23,0-.31-.19-.47-.27Z"/><path class="cls-2" d="M70.66,7.13a3.58,3.58,0,0,0-1.56-.4c-.31,0-.62-.07-.93-.08s-.88,0-1.32-.05-1.11-.11-1.66-.15c-.89-.07-1.77-.11-2.65-.17l-1-.1L60.13,6a2.52,2.52,0,0,0-.55-.08,2.35,2.35,0,0,0-1.1.15,5.5,5.5,0,0,1-1.56.45,10.28,10.28,0,0,0-1.32.35c-.71.17-1.4.4-2.12.51-.52.08-1,.24-1.57.37.13.17.22.27.41.2a.56.56,0,0,1,.25,0l1.5.08,2.27.14c1.47.1,2.94.23,4.42.32.88.06,1.77.07,2.66.12a1.68,1.68,0,0,1,.88.27.83.83,0,0,0,.65,0,10.66,10.66,0,0,1,1.54-.42c.19-.05.36-.17.54-.22l1.28-.36c.32-.08.63-.19.94-.27l1-.25C70.37,7.25,70.47,7.2,70.66,7.13Z"/><path class="cls-2" d="M31.42,23.83l1.22,13s3.62,3.8,11.63,4.73,10.4-2.19,10.4-2.19L59,27Z"/><path class="cls-3" d="M30.92,24.52l-.07-.07a.24.24,0,0,0,0-.35c.16-.06.08-.21.14-.32l-.37-.29a.16.16,0,0,1-.05-.09l-.15-.28c-.12-.21-.25-.42-.38-.63a.23.23,0,0,0-.08-.11.39.39,0,0,1-.17-.39c0-.25,0-.5,0-.74a1.07,1.07,0,0,1,.11-.33,4.94,4.94,0,0,0,.12-.65c.06-.28,0-.57.08-.85s0-.37,0-.55a.75.75,0,0,1,.44-.61.53.53,0,0,0,.26-.29.31.31,0,0,1,.24-.2.65.65,0,0,0,.32-.19s0,0,0,0,.24-.05.3-.12a.34.34,0,0,1,.29-.11h.1l.47-.28c.06.07.13.06.22,0s.34-.07.48-.13.32,0,.48-.12a.91.91,0,0,1,.41-.06c.15,0,.28-.09.43-.09s.07,0,.1,0a.67.67,0,0,0,.42-.06,1.42,1.42,0,0,1,.61-.09.26.26,0,0,0,.15,0,.27.27,0,0,1,.32,0s0-.12.12-.08a.24.24,0,0,0,.31,0s.08,0,.13,0,.16-.06.23,0a.28.28,0,0,0,.22,0,.33.33,0,0,1,.17,0h.43l.5,0a3,3,0,0,1,.73,0c.34.06.69,0,1,.06a1.5,1.5,0,0,0,.42,0l.06,0c.48,0,1,.05,1.45.09.23,0,.46.07.7.1a2.09,2.09,0,0,0,.25,0l.92,0c.21,0,.41.06.61.07a3.34,3.34,0,0,1,.83.13h0a1.84,1.84,0,0,1,.57.05,2.45,2.45,0,0,1,.53.09,5.17,5.17,0,0,1,.54.11,2.07,2.07,0,0,0,.61.06.83.83,0,0,1,.44.12.48.48,0,0,0,.33.07.74.74,0,0,1,.26,0,3.4,3.4,0,0,0,.65.12,2.72,2.72,0,0,1,.49.13,1.66,1.66,0,0,1,.31.12,3.77,3.77,0,0,0,.57.18l.79.17L52,18a1.35,1.35,0,0,1,.54.19.41.41,0,0,0,.31.07,2,2,0,0,1,.49,0c.22,0,.45.06.66.11s.35.12.53.16.47.05.7.1a2,2,0,0,1,.63.17.23.23,0,0,0,.12,0,2.52,2.52,0,0,1,.65.18,1.46,1.46,0,0,0,.36.09,3,3,0,0,1,.86.33l.5.25a4.76,4.76,0,0,1,.47.31,4.15,4.15,0,0,0,.43.3l.24.14a1.83,1.83,0,0,1,.48.4s0,.07,0,.07.19.14.28.21l.52.39a.85.85,0,0,1,.32.43,2.8,2.8,0,0,1,.13.64c0,.12.06.23.07.35a1.27,1.27,0,0,0,.12.57.45.45,0,0,1,0,.28,6.15,6.15,0,0,1-.13.86,1.78,1.78,0,0,1-.24.45c0,.08-.13.15-.18.23s-.23.35-.34.52l0,0c-.21.06-.27.27-.4.4a3.07,3.07,0,0,1-.43.45.8.8,0,0,0-.31.42.53.53,0,0,0,0,.12.93.93,0,0,1-.17.48.47.47,0,0,0,0,.17c0,.13,0,.28-.1.39s0,0,0,0c0,.35-.28.65-.33,1a.27.27,0,0,1-.06.12,3,3,0,0,0-.32.88.22.22,0,0,1,0,.08,2.38,2.38,0,0,0-.3.82,1.51,1.51,0,0,1-.15.28.8.8,0,0,0-.08.16,6.33,6.33,0,0,1-.19.75c-.12.3-.18.61-.31.9s-.26.74-.41,1.1c0,.12-.07.25-.11.38s-.13.38-.2.57a13.42,13.42,0,0,0-.41,1.41,1.06,1.06,0,0,1-.15.42s0,.1,0,.17-.09.21-.13.32a3.05,3.05,0,0,0-.17.66c0,.22-.18.43-.08.67,0,0,0,0,0,.08-.08.19-.15.39-.23.59l-.14,0a.63.63,0,0,1-.11.13l-.09.06a1.14,1.14,0,0,0-.67.32,1.94,1.94,0,0,1-.42.25c-.08,0-.17.08-.25.14a3.11,3.11,0,0,0-.33.29c-.1.09-.18.24-.28.26s-.22.16-.33.23-.24.19-.36.28l0,0c-.34.06-.61.31-1,.36a1.59,1.59,0,0,0-.27.12.94.94,0,0,1-.16,0,.79.79,0,0,0-.42.12.28.28,0,0,1-.39,0c-.07.13-.18.12-.29.12a3.18,3.18,0,0,0-.52.1,1.11,1.11,0,0,1-.48,0,.7.7,0,0,0-.29,0,3.25,3.25,0,0,1-.69.08,3.59,3.59,0,0,0-.47,0s-.07,0-.1.05c-.27-.17-.27-.17-.37,0l-.26,0a1.18,1.18,0,0,0-.46,0,2.21,2.21,0,0,1-.35,0,4.1,4.1,0,0,1-1,0l-.18-.07s0,0-.05,0-.17,0-.24-.07a.68.68,0,0,0-.41-.12,3.53,3.53,0,0,1-.86-.07,4.37,4.37,0,0,0-.5-.09l-.6-.14a.44.44,0,0,0-.23,0,.8.8,0,0,1-.45-.1c-.06,0-.14,0-.21,0s-.24,0-.29-.15c0,0-.09,0-.11,0s-.19.07-.3,0a2.14,2.14,0,0,0-.39-.16c-.11,0-.11-.09-.12-.16s-.1.06-.15.06-.13,0-.16-.06a.5.5,0,0,0-.46-.14L39,41.31c-.06,0-.12,0-.19,0a.64.64,0,0,0-.28-.06.7.7,0,0,1-.41-.14.11.11,0,0,0-.07,0c-.12,0-.19-.11-.32-.1s-.07-.06-.1-.09-.13,0-.16,0L37,40.62a.52.52,0,0,0-.13-.06.58.58,0,0,1-.37-.19.21.21,0,0,0-.1-.06c-.11-.05-.24-.07-.32-.19s-.11,0-.15-.07a1,1,0,0,1-.15-.14c-.09.09-.12,0-.18,0a.87.87,0,0,1-.18-.11,2.34,2.34,0,0,0-.58-.26.45.45,0,0,1-.12-.06l-.34-.3a4,4,0,0,0-.43-.39c-.2-.12-.42-.2-.63-.3l-.1-.07c-.1-.06-.14-.2-.28-.21s0,0,0,0c0-.19-.19-.23-.3-.32a.8.8,0,0,1-.18-.27c-.08-.17-.19-.33-.26-.5a2.67,2.67,0,0,1-.21-.62c0-.09-.08-.15-.08-.25s-.07-.49-.1-.73a2.57,2.57,0,0,0,0-.39c0-.14,0-.3-.1-.43a.14.14,0,0,1,0-.11,2,2,0,0,0,0-.77,2.41,2.41,0,0,0,0-.38c0-.22-.08-.45-.11-.68a.57.57,0,0,1,0-.13c0-.1,0-.21-.05-.3s0-.05,0-.07,0-.26,0-.39a1.55,1.55,0,0,0,0-.22s0-.09,0-.11a.53.53,0,0,1-.06-.33,4.54,4.54,0,0,0-.14-1c0-.07,0-.16.06-.27a.28.28,0,0,0-.07-.11c-.14-.11-.09-.28-.14-.42s.08-.27,0-.39,0-.1.07-.15c-.18-.18-.2-.27-.11-.42-.06-.08-.18-.14-.06-.27s0-.06,0-.09,0-.08,0-.16c-.11-.05-.07-.2-.19-.25s0-.09,0-.13,0-.27,0-.43a.57.57,0,0,0,.08-.08s0-.09.05-.14l-.14-.07.09-.25-.09-.07c0-.16,0-.32.06-.48s0-.43,0-.64a1.42,1.42,0,0,0,0-.46A1,1,0,0,1,30.92,24.52ZM54.46,39.43c0-.1-.08-.16-.07-.22a1.51,1.51,0,0,1,.06-.36c0-.11.1-.22.14-.34a1.72,1.72,0,0,1,.18-.42c.06-.1,0-.23.13-.32a.33.33,0,0,0,0-.1s0-.08,0-.09.08-.18.09-.29a1,1,0,0,1,.06-.16,1.27,1.27,0,0,0,.2-.33c0-.18.19-.33.15-.53,0,0,0-.07,0-.11s.11-.26.16-.39.17-.4.25-.6a1.47,1.47,0,0,0,.06-.14.58.58,0,0,1,.12-.25.69.69,0,0,0,.1-.25c0-.14.06-.28.1-.41s.15-.45.24-.67a3.14,3.14,0,0,1,.24-.57.67.67,0,0,0,.1-.31A1.57,1.57,0,0,1,57,32a2,2,0,0,0,.08-.26c0-.1.07-.2.1-.3.07-.26.28-.46.3-.75a.93.93,0,0,1,0-.34,6.62,6.62,0,0,0,.28-.82c.08-.18.08-.39.26-.51,0,0,0-.06,0-.09a1.36,1.36,0,0,1,0-.29c.06-.21.15-.4.21-.61a1.18,1.18,0,0,0,.1-.48l-.31-.07c-.12.13-.21.3-.42.3l0,0c-.11.11-.28.07-.4.18s-.09,0-.13.05S57,28,57,28a.68.68,0,0,1-.33.1,1.78,1.78,0,0,0-.56.1c-.05,0-.13,0-.19,0s-.07,0-.1,0l-.58.14c-.08,0-.18.06-.23,0s-.24,0-.35,0a1.26,1.26,0,0,0-.28-.05l-.21,0s-.1,0-.14,0-.31,0-.46.05a2.5,2.5,0,0,1-.38.06h-1c-.11,0-.21,0-.32,0s-.27,0-.41,0-.39,0-.58,0-.59,0-.89,0-.35,0-.53,0-.23,0-.35,0-.25,0-.37,0l-.45,0a2.13,2.13,0,0,1-.75-.11s-.08,0-.12,0a1.26,1.26,0,0,1-.72,0,1,1,0,0,0-.24,0,3.71,3.71,0,0,1-.47,0,.94.94,0,0,0-.5,0,.34.34,0,0,1-.14,0l-.27,0a3.18,3.18,0,0,1-1-.17s-.06,0-.07,0c-.16.11-.32,0-.47,0s-.44-.11-.66-.16a3.58,3.58,0,0,0-.45-.09c-.09,0-.19,0-.28,0l-1-.17-.7-.11-.73-.16c-.11,0-.22-.06-.33-.09L39,27.2l-.5-.07c-.08,0-.16-.07-.23-.06-.24,0-.43-.1-.66-.13a3.64,3.64,0,0,1-.63-.16l-.36-.11-.5-.17c-.14,0-.29,0-.42-.08a5.67,5.67,0,0,1-.89-.35c-.1-.06-.23-.06-.34-.12a6,6,0,0,1-1-.58.08.08,0,0,0-.06,0,.46.46,0,0,1-.31-.19.1.1,0,0,0-.08-.05,1,1,0,0,1-.59-.43.46.46,0,0,0-.27-.15c0,.09,0,.17,0,.24a.51.51,0,0,0,.07.24c.08.14.05.32.16.44a0,0,0,0,1,0,0c-.08.08,0,.15,0,.23a.65.65,0,0,1,0,.2,2.93,2.93,0,0,0,0,.41,9.27,9.27,0,0,1,.14.92c0,.06.06.13,0,.18,0,.21,0,.43-.07.64a.34.34,0,0,0,0,.28c.11.22,0,.44.05.66s0,.27,0,.4a.45.45,0,0,1,0,.28.25.25,0,0,0,0,.19c.06.08,0,.15,0,.24s-.06.25.06.36,0,0,0,.06a2.83,2.83,0,0,0,0,.29.72.72,0,0,0,0,.32.57.57,0,0,1,.05.39c0,.07-.08.13-.08.2s0,.16,0,.25a.27.27,0,0,1,0,.09.66.66,0,0,0,0,.14c0,.18.06.37.08.56a3.6,3.6,0,0,0,0,.66,7,7,0,0,1,0,.79c0,.22-.06.47.08.69h0a2.42,2.42,0,0,1,0,.89.44.44,0,0,1,.19.33.48.48,0,0,1,.29.17c.14.16.22.37.44.46a.26.26,0,0,1,.13.14.38.38,0,0,0,.3.22c.11,0,.19.08.21.19s.15-.05.18,0a2,2,0,0,0,.33.15l.38.2a.24.24,0,0,1,.13.11.88.88,0,0,0,.18.25.63.63,0,0,0,.26.16c.1,0,.17.17.31.12s0,0,.05,0l.25.23c.09,0,.15,0,.19,0a.38.38,0,0,1,.17.16c0,.12.14.13.24.16s.44.12.66.19l.06,0,.36.23a.8.8,0,0,0,.19.13,2.54,2.54,0,0,1,.44.15,4.26,4.26,0,0,0,.7.19c.1,0,.2,0,.24.13L40,40l.4.13.09,0,.62,0s.09,0,.11,0,.28.13.42.2.09.05.12,0,.12,0,.18,0a1.57,1.57,0,0,0,.23,0,3.1,3.1,0,0,0,.4.13,2.73,2.73,0,0,0,.41.1,1.88,1.88,0,0,1,.56.16.76.76,0,0,0,.3,0c.09,0,.17.13.29.11h0a1.78,1.78,0,0,1,.61,0c.13,0,.27,0,.38.08h0c.11,0,.23-.08.32.06l.07,0c.13,0,.27-.05.41-.06a.65.65,0,0,1,.31,0,.34.34,0,0,0,.22,0,.51.51,0,0,1,.27,0c.12,0,.18-.07.27-.07s.17.08.29,0a.86.86,0,0,1,.42,0,1.64,1.64,0,0,0,.7,0,1.1,1.1,0,0,1,.26,0,1.2,1.2,0,0,0,.42,0,3.82,3.82,0,0,1,.59-.09c.12,0,.24-.07.35,0a.51.51,0,0,1,.31-.13c.12.06.2,0,.28-.07s.14-.09.23,0a.22.22,0,0,0,.11,0l.53-.12a1.35,1.35,0,0,0,.45-.17,2.36,2.36,0,0,1,.65-.29c.22-.08.45-.12.68-.18a1.54,1.54,0,0,0,.37-.09c.25-.12.49-.27.72-.41A.12.12,0,0,0,54.46,39.43ZM32.23,18.59a3.37,3.37,0,0,1-1.18.83.74.74,0,0,0,0,.14c0,.08.1.15.14.22a.88.88,0,0,0,.34.35,1,1,0,0,1,.3.2c.09.11.24.13.29.28s.07,0,.1.05l.14.07a5.06,5.06,0,0,0,.44.26.34.34,0,0,1,.23.22,3.16,3.16,0,0,1,.53.13c.09.05.17.16.31.12s.05,0,.06,0,0,.06.1.07a.34.34,0,0,1,.19.07c.17.18.41.19.6.3L35,22l.52.18a1.25,1.25,0,0,0,.3.12.52.52,0,0,1,.27.1.21.21,0,0,0,.11,0c.32,0,.57.18.85.27s.35.11.52.15.18,0,.26.07A.15.15,0,0,0,38,23c.12-.08.21,0,.31,0a1.53,1.53,0,0,0,.66.19,2,2,0,0,1,.68.18.39.39,0,0,0,.15,0c.13,0,.29,0,.38,0a2.11,2.11,0,0,0,.52.17,2,2,0,0,0,.35.07c.14,0,.28,0,.41.05a.91.91,0,0,1,.35.12,2.15,2.15,0,0,0,.38.15c.14,0,.29.06.44.09a.83.83,0,0,0,.15,0,1.61,1.61,0,0,1,.62.08c.31,0,.61.11.91.16l.7.1.8.12h0a.68.68,0,0,1,.42.08.34.34,0,0,0,.22,0,.74.74,0,0,1,.61.06h1.07l.15,0a.82.82,0,0,0,.26.06.84.84,0,0,1,.52.07s0,0,0,0l.89,0c.16,0,.32.05.48.06a2.36,2.36,0,0,0,.37,0,1.61,1.61,0,0,1,.49,0,.7.7,0,0,0,.35,0,2.37,2.37,0,0,1,.88,0h.63c.24,0,.48,0,.72,0s.68-.05,1-.1a2.39,2.39,0,0,1,.53,0,.25.25,0,0,0,.19,0,.77.77,0,0,1,.44-.12l.25,0,.17,0,.26-.07.14,0c.17,0,.37,0,.51-.16s.06,0,.09,0a2.64,2.64,0,0,0,.6-.19c.19-.11.4-.17.58-.28l.11,0,.65-.23c.1,0,.18-.12.28-.17a6.24,6.24,0,0,0,.86-.54s0-.06.06-.08a.63.63,0,0,1-.08-.28.42.42,0,0,0-.22-.42c-.1-.06-.11-.18-.18-.22a1.74,1.74,0,0,1-.5-.35c-.07-.07-.17-.14-.24-.22s-.1-.15-.2-.18A.62.62,0,0,1,59,21a1.83,1.83,0,0,0-.77-.48l-.13-.05a.41.41,0,0,0-.2-.06.51.51,0,0,1-.29-.1,2,2,0,0,0-.35-.19c-.24-.08-.49-.13-.74-.19h-.08c-.19-.07-.38-.16-.57-.24a2.77,2.77,0,0,0-.41-.12c-.16-.05-.33-.07-.49-.13a3.51,3.51,0,0,0-.63-.19l-.23,0-.83-.31a.25.25,0,0,0-.15,0,1.29,1.29,0,0,1-.82-.1,4,4,0,0,0-.59-.16c-.25-.05-.52-.06-.78-.09l-.79-.14c-.31-.05-.59-.2-.91-.23s-.68-.15-1-.18-.62-.23-.95-.19h0l-.72-.12-.44-.1a4,4,0,0,0-.48-.07.92.92,0,0,1-.37,0,1.07,1.07,0,0,0-.4-.1l-1.34-.14c-.25,0-.51,0-.76-.05l-1.23-.18h-.12c-.2,0-.4.11-.62,0h-.05l-.38,0a1.84,1.84,0,0,1-.66,0,1.31,1.31,0,0,0-.28,0l-1.3.19a2.5,2.5,0,0,1-.55.05.42.42,0,0,0-.19,0,1.29,1.29,0,0,1-.28.08,3.23,3.23,0,0,0-.81.16,4.47,4.47,0,0,0-.61.14,2.25,2.25,0,0,1-.35.09.82.82,0,0,1-.35,0,.47.47,0,0,0-.36.07s-.09.1-.16,0a.33.33,0,0,1-.37,0s0,0-.06,0l-.58.26a.38.38,0,0,1-.17,0,.64.64,0,0,0-.43.15A1.08,1.08,0,0,1,32.23,18.59Zm-1.42,2.26h0c0,.09,0,.19,0,.29s0,.39,0,.59a.63.63,0,0,1-.2.53c-.12.1-.1.14,0,.23a2,2,0,0,1,.35.31,1.47,1.47,0,0,0,.58.47,1.63,1.63,0,0,1,.35.23,1,1,0,0,0,.28.18,2.58,2.58,0,0,1,.51.29,2.15,2.15,0,0,0,.57.37.76.76,0,0,1,.32.17,1.43,1.43,0,0,0,.54.33s0,0,.06,0a.8.8,0,0,0,.23.11c.12,0,.23,0,.29.16s0,0,.06,0l.53.17a2.53,2.53,0,0,1,.53.24,1.14,1.14,0,0,0,.3.13l.31.06.2.08a2.84,2.84,0,0,1,.35.13,1.59,1.59,0,0,0,.68.14,1.19,1.19,0,0,1,.26.05,5.13,5.13,0,0,0,1,.21,3.09,3.09,0,0,1,.83.22.37.37,0,0,0,.15,0,2.64,2.64,0,0,1,.29,0,3.11,3.11,0,0,1,.44.07,4.29,4.29,0,0,0,.5.07c.33.07.65.11,1,.15a1.16,1.16,0,0,0,.37,0,1.47,1.47,0,0,1,.59.1c.33.07.65.17,1,.25a2.2,2.2,0,0,1,.37.07,3.88,3.88,0,0,0,1,.23,5.09,5.09,0,0,0,.55,0l.64.07.39.07s.07,0,.09,0,.31,0,.43-.09,0,0,.06,0l.89,0h0l.41.1s.06,0,.08,0a.34.34,0,0,1,.26-.05c.11,0,.23,0,.34,0l.69,0h1.12a2.37,2.37,0,0,1,.7-.1c.14,0,.28-.05.42-.05a2.12,2.12,0,0,0,.86-.2.3.3,0,0,1,.16,0c.16,0,.32-.09.49,0a.15.15,0,0,0,.11,0,1.16,1.16,0,0,1,.71-.08h.08l.7-.26c.07,0,.11-.11.18-.14s.16,0,.25,0a1.42,1.42,0,0,0,.18-.08,1.56,1.56,0,0,0,.65-.24l.07,0a1.11,1.11,0,0,0,.26-.07s.06-.08.09-.11.16-.19.24-.19.28-.08.44-.07a.51.51,0,0,0,.2-.06,1.89,1.89,0,0,1,.69-.17,1.4,1.4,0,0,0,.67-.18l.18-.11a3.47,3.47,0,0,0,.46-.4,2.23,2.23,0,0,1,.49-.48.59.59,0,0,0,.25-.5l0-.35a1.12,1.12,0,0,0,0-.45.56.56,0,0,0-.17.11,1,1,0,0,1-.42.27,1.71,1.71,0,0,0-.39.17.63.63,0,0,1-.32.19c-.18,0-.34.15-.53.13a.19.19,0,0,0-.13.05.29.29,0,0,1-.27.12.48.48,0,0,0-.17.05l-.66.21a2.1,2.1,0,0,0-.46.16.64.64,0,0,1-.31.07,1.43,1.43,0,0,0-.5.09,1,1,0,0,1-.24.08,1.36,1.36,0,0,0-.39.08,3.71,3.71,0,0,1-.68.11c-.07,0-.15,0-.21,0a1.43,1.43,0,0,1-.58.08c-.32,0-.63.1-1,.08s-.64,0-1,0-.54-.11-.8,0H51.6c-.15,0-.29,0-.43,0a3.57,3.57,0,0,1-.73,0,1.28,1.28,0,0,0-.39,0,1.52,1.52,0,0,1-.52,0,2.13,2.13,0,0,0-.25,0l-.73,0-.43-.05-.55,0-.69,0a1.82,1.82,0,0,0-.33,0,1.87,1.87,0,0,1-.47,0c-.17,0-.34-.05-.52-.06l-.78-.07c-.37,0-.73-.1-1.1-.12s-.48-.08-.73-.08-.43-.06-.65-.05-.35-.17-.56-.09l-.07,0a1.62,1.62,0,0,0-.54-.17,2.57,2.57,0,0,1-.87-.11h0a5.56,5.56,0,0,1-1-.18h0a2.22,2.22,0,0,0-.63-.07.82.82,0,0,1-.26,0,.22.22,0,0,1-.14-.06C38.1,24,38,24,38,24l-.67-.1a1.09,1.09,0,0,1-.26,0c-.15-.06-.32,0-.46-.16s-.18-.05-.25-.1a.49.49,0,0,0-.35-.09h-.07a3.35,3.35,0,0,1-.62-.17,1.83,1.83,0,0,0-.33-.11c-.1,0-.18-.1-.28-.13a3.19,3.19,0,0,1-.79-.32.69.69,0,0,0-.13-.05.53.53,0,0,1-.17-.08.69.69,0,0,0-.42-.15.86.86,0,0,1-.27-.05.21.21,0,0,1-.11-.07c0-.09-.13-.1-.22-.11s-.17,0-.19-.14-.05,0-.07,0-.11,0-.14-.09a.65.65,0,0,0-.36-.26.79.79,0,0,1-.31-.22,2.18,2.18,0,0,0-.44-.42A.67.67,0,0,1,30.81,20.85Z"/><path class="cls-5" d="M31.23,19.78a.88.88,0,0,0,.34.35.88.88,0,0,1,.3.2c.09.11.24.13.29.28s.07,0,.1.05l.14.07a5.06,5.06,0,0,0,.44.26.34.34,0,0,1,.23.22,3.16,3.16,0,0,1,.53.13c.09.05.17.16.31.12s.05,0,.06,0,0,.06.1.07a.34.34,0,0,1,.19.07c.17.18.41.19.6.3L35,22l.52.18a1.25,1.25,0,0,0,.3.12.52.52,0,0,1,.27.1.21.21,0,0,0,.11,0c.32,0,.57.18.85.27s.35.11.52.15.18,0,.26.07A.15.15,0,0,0,38,23c.12-.08.21,0,.31,0a1.53,1.53,0,0,0,.66.19,2,2,0,0,1,.68.18.39.39,0,0,0,.15,0c.13,0,.29,0,.38,0a2.11,2.11,0,0,0,.52.17,2,2,0,0,0,.35.07c.14,0,.28,0,.41.05a.91.91,0,0,1,.35.12,2.15,2.15,0,0,0,.38.15c.14,0,.29.06.44.09a.83.83,0,0,0,.15,0,1.61,1.61,0,0,1,.62.08c.31,0,.61.11.91.16l.7.1.8.12h0a.68.68,0,0,1,.42.08.34.34,0,0,0,.22,0,.74.74,0,0,1,.61.06h1.07l.15,0a.82.82,0,0,0,.26.06.85.85,0,0,1,.52.07s0,0,0,0l.89,0c.16,0,.32.05.48.06a2.36,2.36,0,0,0,.37,0,1.61,1.61,0,0,1,.49,0,.7.7,0,0,0,.35,0,2.37,2.37,0,0,1,.88,0h.63c.24,0,.48,0,.72,0s.68-.05,1-.1a2.39,2.39,0,0,1,.53,0,.25.25,0,0,0,.19,0,.77.77,0,0,1,.44-.12l.25,0,.17,0,.27-.07.13,0c.17,0,.37,0,.51-.16s.06,0,.09,0a2.64,2.64,0,0,0,.6-.19c.19-.11.4-.17.58-.28l.11,0,.65-.23c.1,0,.18-.12.28-.17a6.24,6.24,0,0,0,.86-.54s0-.06.06-.08a.63.63,0,0,1-.08-.28.42.42,0,0,0-.22-.42c-.1-.06-.11-.18-.18-.22a1.74,1.74,0,0,1-.5-.35c-.07-.07-.17-.14-.24-.22s-.1-.15-.2-.18A.62.62,0,0,1,59,21a1.83,1.83,0,0,0-.77-.48l-.13-.05a.41.41,0,0,0-.2-.06.51.51,0,0,1-.29-.1,2,2,0,0,0-.35-.19c-.24-.08-.49-.13-.74-.19h-.08c-.19-.07-.38-.16-.57-.24a2.77,2.77,0,0,0-.41-.12c-.16-.05-.33-.07-.49-.13a3.51,3.51,0,0,0-.63-.19l-.23,0-.83-.31a.25.25,0,0,0-.15,0,1.29,1.29,0,0,1-.82-.1,4,4,0,0,0-.59-.16c-.25-.05-.52-.06-.78-.09l-.79-.14c-.31-.05-.59-.2-.91-.23s-.68-.15-1-.18-.62-.23-.95-.19h0l-.72-.12-.44-.1a4,4,0,0,0-.48-.07.92.92,0,0,1-.37,0,1.07,1.07,0,0,0-.4-.1l-1.34-.14c-.25,0-.51,0-.76-.05l-1.23-.18h-.12c-.2,0-.4.11-.62,0h-.05l-.38,0a1.84,1.84,0,0,1-.66,0,1.31,1.31,0,0,0-.28,0l-1.3.19a2.5,2.5,0,0,1-.55.05.42.42,0,0,0-.19,0,1.47,1.47,0,0,1-.28.08,3.23,3.23,0,0,0-.81.16,4.47,4.47,0,0,0-.61.14,2.25,2.25,0,0,1-.35.09.84.84,0,0,1-.35,0,.47.47,0,0,0-.36.07s-.09.1-.16,0a.33.33,0,0,1-.37,0s0,0-.06,0l-.58.26a.38.38,0,0,1-.17,0,.64.64,0,0,0-.43.15,1.08,1.08,0,0,1-.6.18,3.37,3.37,0,0,1-1.18.83.74.74,0,0,0,0,.14C31.13,19.64,31.19,19.71,31.23,19.78ZM39,21.21c.13-.09.1-.26.18-.37a.33.33,0,0,1,.32-.16.32.32,0,0,0,.19,0,1.44,1.44,0,0,1,.65-.07,1.51,1.51,0,0,0,.3,0c.17,0,.34,0,.5-.06h0a1.09,1.09,0,0,0,.62,0c.23,0,.47,0,.7,0s.29,0,.43,0l.25,0a1.71,1.71,0,0,1,.18-.2.22.22,0,0,1,.13-.06l.62.08c.18,0,.36.08.54.12l.48.1c.15,0,.32,0,.48.06s.2.07.3.09l.56.1c.31.06.62.11.93.18l.38.08h0a2.43,2.43,0,0,1,.85.11,1.26,1.26,0,0,0,.27,0,.41.41,0,0,1,.24.08.19.19,0,0,0,.14,0,1.44,1.44,0,0,1,.47.06l.39.08.67.16a2.35,2.35,0,0,0,.54.11A1.46,1.46,0,0,1,52,22c.13.06.24.14.37.19a.22.22,0,0,1,.13.2.18.18,0,0,1-.08.21l-.53.22a1.06,1.06,0,0,0-.34.12.72.72,0,0,1-.21,0l-.39.07-.09,0c-.33,0-.66.09-1,.1a4.07,4.07,0,0,0-.7.1c-.21.05-.43.07-.64.1h-.31a1.35,1.35,0,0,0-.52.11.56.56,0,0,1-.42,0,1.28,1.28,0,0,0-.34-.07l0,0a.32.32,0,0,0-.29-.24,5.25,5.25,0,0,1-.88-.09c-.33-.08-.67-.1-1-.15l-.46-.11-.56-.07a.71.71,0,0,1-.21,0,1.08,1.08,0,0,0-.5-.08l-.2,0a.93.93,0,0,0-.34-.06,2.23,2.23,0,0,1-.36-.05c-.29,0-.56-.15-.84-.17a5.13,5.13,0,0,1-.87-.16c-.18,0-.36-.05-.54-.08l-.73-.14-.11,0c0-.16,0-.3,0-.44S39.12,21.3,39,21.21Z"/><polygon class="cls-5" points="43.22 20.53 43.22 20.53 43.22 20.53 43.22 20.53"/><path class="cls-5" d="M60.83,23.36a.56.56,0,0,0-.17.11,1,1,0,0,1-.42.27,1.71,1.71,0,0,0-.39.17.63.63,0,0,1-.32.19c-.18,0-.34.15-.53.13a.19.19,0,0,0-.13.05.29.29,0,0,1-.27.12.48.48,0,0,0-.17.05l-.66.21a2.1,2.1,0,0,0-.46.16.64.64,0,0,1-.31.07,1.43,1.43,0,0,0-.5.09,1,1,0,0,1-.24.08,1.36,1.36,0,0,0-.39.08,3.71,3.71,0,0,1-.68.11c-.07,0-.15,0-.21,0a1.43,1.43,0,0,1-.58.08c-.32,0-.63.1-1,.08s-.64,0-1,0-.54-.11-.8,0H51.6c-.15,0-.29,0-.43,0a3.57,3.57,0,0,1-.73,0,1.28,1.28,0,0,0-.39,0,1.51,1.51,0,0,1-.52,0,2.13,2.13,0,0,0-.25,0l-.73,0-.43-.05-.55,0-.69,0a1.82,1.82,0,0,0-.33,0,1.87,1.87,0,0,1-.47,0c-.17,0-.34-.05-.52-.06l-.78-.07c-.37,0-.73-.1-1.1-.12s-.48-.08-.73-.08-.43-.06-.65-.05-.35-.17-.56-.09l-.07,0a1.62,1.62,0,0,0-.54-.17,2.57,2.57,0,0,1-.87-.11h0a5.56,5.56,0,0,1-1-.18h0a2.22,2.22,0,0,0-.63-.07.82.82,0,0,1-.26,0,.22.22,0,0,1-.14-.06C38.1,24,38,24,38,24l-.67-.1a1.09,1.09,0,0,1-.26,0c-.15-.06-.32,0-.46-.16s-.18-.05-.25-.1a.49.49,0,0,0-.35-.09h-.07a3.35,3.35,0,0,1-.62-.17,1.83,1.83,0,0,0-.33-.11c-.1,0-.18-.1-.28-.13a3.19,3.19,0,0,1-.79-.32.69.69,0,0,0-.13-.05.53.53,0,0,1-.17-.08.69.69,0,0,0-.42-.15.86.86,0,0,1-.27-.05.21.21,0,0,1-.11-.07.24.24,0,0,0-.21-.11c-.08,0-.18,0-.2-.14s-.05,0-.07,0-.11,0-.14-.09a.65.65,0,0,0-.36-.26.79.79,0,0,1-.31-.22,2.18,2.18,0,0,0-.44-.42.67.67,0,0,1-.25-.25h0c0,.09,0,.19,0,.29v.59a.67.67,0,0,1-.21.53c-.12.1-.1.14,0,.23a2,2,0,0,1,.35.31,1.47,1.47,0,0,0,.58.47,1.63,1.63,0,0,1,.35.23,1,1,0,0,0,.28.18,2.58,2.58,0,0,1,.51.29,2.15,2.15,0,0,0,.57.37.76.76,0,0,1,.32.17,1.43,1.43,0,0,0,.54.33s0,0,.06,0a.8.8,0,0,0,.23.11c.12,0,.23,0,.29.16s0,0,.06,0l.53.17a2.53,2.53,0,0,1,.53.24,1.14,1.14,0,0,0,.3.13l.31.06.2.08a2.84,2.84,0,0,1,.35.13,1.59,1.59,0,0,0,.68.14,1.19,1.19,0,0,1,.26.05,5.13,5.13,0,0,0,1,.21,3.09,3.09,0,0,1,.83.22.37.37,0,0,0,.15,0,2.64,2.64,0,0,1,.29,0,3.11,3.11,0,0,1,.44.07,4.29,4.29,0,0,0,.5.07c.33.07.65.11,1,.15a1.16,1.16,0,0,0,.37,0,1.47,1.47,0,0,1,.59.1c.33.07.65.16,1,.25a2.2,2.2,0,0,1,.37.07,3.88,3.88,0,0,0,1,.23,5.09,5.09,0,0,0,.55,0l.64.07.39.07s.07,0,.09,0,.31,0,.43-.09,0,0,.06,0l.89,0h0l.41.1s.06,0,.08,0a.34.34,0,0,1,.26-.05c.11,0,.23,0,.34,0l.69,0h1.12a2.37,2.37,0,0,1,.7-.1c.14,0,.28-.05.42-.05a2.12,2.12,0,0,0,.86-.2.3.3,0,0,1,.16,0c.16,0,.32-.09.49,0a.15.15,0,0,0,.11,0,1.16,1.16,0,0,1,.71-.08h.08l.7-.26c.07,0,.11-.11.18-.14s.16,0,.25,0a1.42,1.42,0,0,0,.18-.08,1.56,1.56,0,0,0,.65-.24l.07,0a1.11,1.11,0,0,0,.26-.07s.06-.08.09-.11.16-.19.24-.19.28-.08.44-.07a.51.51,0,0,0,.2-.06,1.89,1.89,0,0,1,.69-.17,1.4,1.4,0,0,0,.67-.18l.18-.11a3.47,3.47,0,0,0,.46-.4,2.23,2.23,0,0,1,.49-.48.59.59,0,0,0,.25-.5l0-.35A1.12,1.12,0,0,0,60.83,23.36Z"/><path class="cls-3" d="M43.22,20.53a1.71,1.71,0,0,1,.18-.2.22.22,0,0,1,.13-.06l.62.08c.18,0,.36.08.54.12l.48.1c.15,0,.32,0,.48.06s.2.07.3.09l.56.1c.31.06.62.11.93.18l.38.08h0a2.43,2.43,0,0,1,.85.11,1.26,1.26,0,0,0,.27,0,.41.41,0,0,1,.24.08.19.19,0,0,0,.14,0,1.44,1.44,0,0,1,.47.06l.39.08.67.16a2.35,2.35,0,0,0,.54.11A1.46,1.46,0,0,1,52,22c.13.06.24.14.37.19a.22.22,0,0,1,.13.2.18.18,0,0,1-.08.21l-.53.22a1.21,1.21,0,0,0-.35.12c-.05,0-.13,0-.2,0l-.39.07-.09,0c-.33,0-.66.09-1,.1a4.07,4.07,0,0,0-.7.1c-.21.05-.43.07-.64.1h-.31a1.35,1.35,0,0,0-.52.11.56.56,0,0,1-.42,0,1.28,1.28,0,0,0-.34-.07l0,0a.32.32,0,0,0-.29-.24,5.25,5.25,0,0,1-.88-.09c-.33-.08-.67-.1-1-.15l-.46-.11-.56-.07a.71.71,0,0,1-.21,0,1.08,1.08,0,0,0-.5-.08l-.2,0a.93.93,0,0,0-.34-.06,2.23,2.23,0,0,1-.36-.05c-.29,0-.56-.15-.84-.17a5.13,5.13,0,0,1-.87-.16c-.18,0-.36-.05-.54-.08l-.73-.14-.11,0c0-.16,0-.3,0-.44s.13-.11,0-.2c.13-.09.1-.26.18-.37a.33.33,0,0,1,.32-.16.32.32,0,0,0,.19,0,1.44,1.44,0,0,1,.65-.07,1.51,1.51,0,0,0,.3,0c.17,0,.33,0,.5-.06h0a1.09,1.09,0,0,0,.62,0c.23,0,.47,0,.7,0s.29,0,.43,0l.25,0a.64.64,0,0,1-.08.14s-.09.09-.14.09-.26,0-.39,0-.18,0-.24,0a.39.39,0,0,0-.36.06l-.14.05c-.12.05-.23,0-.35,0A1.59,1.59,0,0,0,41,21a1,1,0,0,1-.37,0l-.43.05s-.07,0-.11.06c.14.05.27.05.39.09s.52.09.78.17a3.89,3.89,0,0,0,.49.12l.19,0,.85.19c.06,0,.13.05.19,0s.28,0,.41.06.31.1.47.14.5.08.75.12l.16,0,.48.15.69.16c.17,0,.35.05.52.09l.21.06.22.07c.13-.18.27-.29.46-.25a2.31,2.31,0,0,0,.87-.09l.62-.11.94-.07.49-.07s0,0,0,0l-.09,0-.65-.12-.72-.12-.66-.11-.57-.08c-.29,0-.58-.1-.86-.15a.53.53,0,0,1-.12,0,1.86,1.86,0,0,0-.25-.1,1.56,1.56,0,0,1-.59-.12.19.19,0,0,0-.13,0,1.22,1.22,0,0,1-.54-.11s-.06,0-.09,0a.92.92,0,0,1-.61-.06,4.06,4.06,0,0,0-.69-.16A.78.78,0,0,1,43.22,20.53Z"/><path class="cls-2" d="M43.22,20.53a.78.78,0,0,0,.53.33,4.06,4.06,0,0,1,.69.16.92.92,0,0,0,.61.06s.06,0,.09,0a1.22,1.22,0,0,0,.54.11.19.19,0,0,1,.13,0,1.56,1.56,0,0,0,.59.12,1.86,1.86,0,0,1,.25.1.53.53,0,0,0,.12,0c.28.05.57.11.86.15l.57.08.66.11.72.12.65.12.09,0s0,0,0,0l-.49.07-.94.07-.62.11a2.31,2.31,0,0,1-.87.09c-.19,0-.33.07-.46.25l-.22-.07-.21-.06c-.17,0-.35,0-.52-.09l-.69-.16-.48-.15-.16,0c-.25,0-.5-.07-.75-.12s-.31-.11-.47-.14-.26-.1-.41-.06-.13,0-.19,0L42,21.6l-.19,0a3.89,3.89,0,0,1-.49-.12c-.26-.08-.53-.07-.78-.17s-.25,0-.39-.09c0,0,.07-.06.11-.06l.43-.05A1,1,0,0,0,41,21a1.59,1.59,0,0,1,.49-.11c.12,0,.23,0,.35,0l.14-.05a.39.39,0,0,1,.36-.06c.06,0,.16,0,.24,0s.26,0,.39,0,.1-.05.14-.09a.64.64,0,0,0,.08-.14Z"/><polygon class="cls-2" points="2.25 22.69 3.52 29.6 45.49 42.03 93.5 20.23 94.76 14.42 45.45 34.7 2.25 22.69"/><path class="cls-1" d="M10.45,60.87,2.64,30.47a.7.7,0,0,1,.88-.87L46.41,43l.08,34.85Z"/><path class="cls-1" d="M3.88,37.67v-.44S3.82,37.36,3.88,37.67Z"/><path class="cls-1" d="M41.64,76.88l-.1,0A.21.21,0,0,0,41.64,76.88Z"/><path class="cls-1" d="M4.12,24.05h0v0Z"/><path class="cls-1" d="M7.93,42.14C6.74,36.46,6.83,34.85,5.3,29c-.21-1-.44-2-.69-3-.12-.5-.24-1-.37-1.49l0-.19s0,0,0,0l0,0,0,0c0-.06-.12-.2,0-.23-.1-.22.11-.15.26-.1l.41.13.68.2a7.34,7.34,0,0,0,1.28.27l.52.37a5.06,5.06,0,0,1,1.67.46l0,0c.82.1,1.66.46,2.07.51l-.05,0,.95.27-.19,0a25.33,25.33,0,0,1,4,1.14l0-.26c2.54,1.07,3.65.9,5.92,1.94l0,0c3.18.34,4.61,1.88,7.87,2.28-.41-.05.13.16.08.21,1.44.38,3,.82,3.13.38,1,.32.8.4.88.61.05-.19,1,0,1.79.24l-.4,0,2.34.66L36.86,33c1.19.49.17.54,1.38.82l.08-.31a38.55,38.55,0,0,1,4.1,2.1l1,.31.32.1c.16,2.81.33,5.69.5,8.5a85.45,85.45,0,0,1,.11,9.29l-.23.3c-.35.14.57,1.83.25,2.09l.18.77c-.06.22-.11.68-.2.3a3.78,3.78,0,0,0,.18,1.24l-.19.78c-.1,2.82.39,5.21.39,8.19a39.36,39.36,0,0,0,.2,7.92l-.55-.14L44,75.14l-.16,0L43.64,75c-5.16-1.84-10.29-5.8-15.6-7.63a1.17,1.17,0,0,0-.63-.18L22.82,65S.48,54.35,16.26,65l-.15,0A23.68,23.68,0,0,0,22,67.6c.08.55,2.06,1,2.58,1.43h-.07c1.7.4,3.05,1.77,4.67,2.17-.07,0-.16.11-.5,0,1.11.46,2.63,1.06,2.59,1.35,2.62,1.15,6.18,3,8,3.34h-.14a14.16,14.16,0,0,1,2.36.9c0,.06.11.11.09.12a5.12,5.12,0,0,1,1,.31l.33.14.4.18.81.38c1.07.52,2.15,1.06,2.71,1.26l.24.31.67.3L47.66,77v1.26a3.23,3.23,0,0,1-.12-1.83,14.46,14.46,0,0,0,.09-1.47,7.91,7.91,0,0,0,0-.85,4.51,4.51,0,0,0-.08-.6c0-1.54-1.13-3.08-.93-4.69-.25-.75.4.66.19-.47.26,0,.18.53.38.23-.16-1.11.22-1.84,0-3.21l.2-.06c-.42-1.79.18-3.4-.21-4.59-.22-1.84.57-1.25.12-3.17l.26-.76c0-.83-.36-.58-.25-1.5.18.05.11-1.16.29-.63.21-2.08-.5-4.19-.12-6.93-.35-.59-.19-2-.45-2.4.14-.08,0-2.75.31-1.22,0,.13,0,.37,0,.35l.21.18c.33-1.57-.29-2.82-.27-4.36-.06.46,0,1.06-.17.66V39.48l.17.29,0-2.13-.2.3c0-.53.15-.88.2-1.25a3.06,3.06,0,0,0,0-.77,10.48,10.48,0,0,0-.15-1.35c-.1-.44-.15,0-.2.37s-.09.5-.15-.4c0-.27,0-.57,0-.91L45.13,33l-.91-.34-.56-.23c-.77-.31-1.56-.62-2.3-.88.08.28-.37.13-.85,0v-.22c-1.89-.29-.53-.63-2.38-1l.2-.09-.6.26C36,30.43,37,29.88,35,29.84c.72.19.2.54-.64.18l.28-.12a4.91,4.91,0,0,1-1-.22c.32,0,.24-.23-.48-.41l.55-.09-1.45-.07c-1-.53-2.7-.79-3-1.19a10,10,0,0,0-2.79-.69c.5,0-.71-.49-.29-.59a7.42,7.42,0,0,1-3-.77h.14c-2.46-1-4.42-1-6.6-2,0,.26-1.13-.23-.92.15-2.44-.45-4.1-1.92-5.23-1.29A7.19,7.19,0,0,1,8.8,21.9l.26,0L6.82,21.3,6,21l-1.25-.4a5.39,5.39,0,0,0-1.34-.12c-.4,0-.86,0-1.59,0,.18-.08.13-.12,0-.12A1.22,1.22,0,0,0,1,20.7c.16-.15.27-.22.23-.24s-.26,0-.59.33a2.53,2.53,0,0,0-.14.49s0,0,0,0a2.86,2.86,0,0,0,0,.53.59.59,0,0,0,0,.2s0-.1.09-.32c0,0,0,0,.11-.07A2.81,2.81,0,0,0,.6,23.16a5,5,0,0,1,.28,2c.65,2.53,1.37,4.28,2,6.38-.1.27-.34-.2-.54-.8l.4,1.49c-.22,0-.32-.83-.47-1.28.06,1.86,1.19,3.61,1.36,5.78l.27.39v.14c.09,0,.32.41.42.72-.12.34-.43.07-.18,1.11a15.1,15.1,0,0,0,1,3.37c-.1-.59,0-.43.17-.19.13.52,0,.86.18,1.24l-.24.11c.19-.26.57,1.3.72,1.46-.12.34-.35-.76-.52-.86.5,2.08.25,1,.76,3.11.44,1.07.19-.25.53.23a15.62,15.62,0,0,1,.78,3l.14-.41a14.45,14.45,0,0,1,.89,4.21c5,13.31,3.15,2.32,3.15,2.32C10.89,51.18,9.59,48.54,7.93,42.14Z"/><path class="cls-1" d="M85.22,49.41l7.66-27.27a.85.85,0,0,0-1.17-1l-45.13,22-.12,33.68a.52.52,0,0,0,.83.4Z"/><path class="cls-1" d="M90,24.34l.2-.43C90.13,23.91,90.07,24,90,24.34Z"/><path class="cls-1" d="M54.59,70.33l.08-.08A.5.5,0,0,0,54.59,70.33Z"/><path class="cls-1" d="M85.85,14.68h0l.1-.07Z"/><path class="cls-1" d="M91.56,30.44c.76-3,1.35-4.81,1.9-6.69.28-.94.55-1.89.83-3,.14-.55.28-1.14.43-1.78.24-1,.49-2.16.77-3.4l0-.22a3.23,3.23,0,0,0-.17-1.66,3,3,0,0,0-1.7-1.66A2.69,2.69,0,0,0,93,11.9a3.26,3.26,0,0,0-1.82.33l-2.07.94-1.17.54-2.06,1c-1.15.88-3.56,1.58-5,2.52l-.67.08a5.7,5.7,0,0,1-1.65.79V18c-.73.48-1.65.79-2,1V19l-.94.44.13-.15a29.09,29.09,0,0,1-4,1.87l.2.17c-2.77.93-3.54,1.81-6.07,2.58V23.8c-2.78,1.91-5,1.72-7.86,3.65.36-.24-.21,0-.2-.11-1.42.7-2.94,1.41-2.77,1.85-1.06.46-.92.24-1.13.14.09.18-.79.66-1.6,1l.34-.23-2.32,1.09.62.15c-1.29.45-.51-.29-1.66.32l.14.29a12.78,12.78,0,0,1-2.35.68l-.56.11-.28.06a2.24,2.24,0,0,0-.35.09c-.62.19-1.31.41-2.09.69l-.21.09c0,.82,0,1.64.05,2.46,0,.49,0,1,0,1.49,0,1,.08,1.91.13,2.88l.33,5.77a104.48,104.48,0,0,1,.2,11.11l-.23.32c-.35.15.57,1.93.25,2.21l.18.81c0,.23-.11.72-.2.32a4.18,4.18,0,0,0,.19,1.31l-.2.82c-.08,3,.41,5.53.41,8.67-.05.48-.07,1-.09,1.56v1.41c0,.53,0,1.07,0,1.63a3.18,3.18,0,0,0,.62,1.77,1.23,1.23,0,0,0,.24.29,1.92,1.92,0,0,0,.42.28,2,2,0,0,0,.48.14,1.58,1.58,0,0,0,.38,0,3.32,3.32,0,0,0,1.92-.78l2.12-1.62C52.52,75.26,54,74,55.23,73c4.34-3.83,10.57-6.67,15-10.64a1.38,1.38,0,0,0,.49-.48l4.38-3.16s21.2-15.37,3.44-6l.06-.14a26.24,26.24,0,0,0-5.44,4.17c-.53-.19-2,1.4-2.63,1.69l0-.07c-1.24,1.36-3.17,2-4.38,3.24,0-.07,0-.2.3-.44-1,.8-2.32,1.9-2.56,1.74-2.4,1.84-5.88,4.24-7.18,5.74l.06-.14c-.71.89-1.12.88-2,1.73-.08,0-.16,0-.16,0-.79,1-2.8,2.12-3.51,2.79L50.92,73l-1.8,1.37.09,0,.18-.12.37-.24c.05.27-.49.57-.73.61a2.65,2.65,0,0,0-.44.17,1.5,1.5,0,0,0-.48.44c-.1,0-.2.19-.37.23a.41.41,0,0,1-.38,0,1.29,1.29,0,0,1-.45-.59,2.91,2.91,0,0,1-.2-1.48c-.25-.8.4.7.19-.5.26,0,.18.56.38.24-.16-1.18.21-1.94,0-3.39l.2-.07c-.42-1.89.17-3.59-.22-4.85-.22-1.95.57-1.33.12-3.36l.25-.8c0-.88-.35-.62-.25-1.59.18,0,.11-1.23.29-.66.21-2.2-.51-4.44-.13-7.34-.35-.62-.19-2.08-.46-2.54.15-.08,0-2.91.31-1.29,0,.14,0,.39,0,.37l.2.19c.33-1.66-.29-3-.27-4.62-.06.49,0,1.13-.17.7l0-1.51.18.31,0-2.26-.2.32c.08-1.11.42-1.51.09-2.74-.18-.56-.25,1-.35-.11,0-.43.06-.92.1-1.44a.72.72,0,0,1,0-.17l0-.05,0-.1.06-.17.3,0h0l.07,0,.29-.11.56-.22c-.25-.15.22-.34.67-.6l.14.16c1.72-1.06.85.12,2.58-.89l-.11.2.31-.6c1.48-1.09,1.06,0,2.65-1.31-.7.35-.52-.26.41-.57l-.15.28a5.08,5.08,0,0,1,.95-.51c-.25.23,0,.33.67,0l-.39.44,1.22-.93c1.14-.27,2.7-1.25,3.24-1.19a10.94,10.94,0,0,0,2.71-1.38c-.37.38.9-.11.64.25a8.13,8.13,0,0,1,2.94-1.47l-.12.08c2.66-.92,4.26-2.23,6.67-3-.2-.17,1.07-.59.65-.73,2.25-1.33,4.58-1.35,5.07-2.59a8.13,8.13,0,0,1,2-.57l-.24.16c2-1,2.58-1.23,4.1-1.88.71-.41.65-.86,2-1.36-.37.35.17.08.67-.14-.31.16-.38.27.32.08a2.39,2.39,0,0,1,.33-.27s0,0,0,0c.81-.42.64-.41.24-.26,0,0,0-.05-.17,0A8.63,8.63,0,0,0,90,16.3l.18-.08.09,0a.56.56,0,0,1,.15,0c.09,0,.15,0,.16.08l.58-.32a1.87,1.87,0,0,1,.31-.17.45.45,0,0,1,.34,0,.38.38,0,0,1,.29.43c0,.18,0,.37,0,.59s0,.34,0,.51l0,.29-.09.46c-.1.1-.15,0-.17-.18s0-.23,0-.35a1.76,1.76,0,0,1,0-.23l0,.19-.08.36-.16.8c-.1,0-.08-.26,0-.55s.07-.31.1-.46a.78.78,0,0,0,0-.26l0,.07a.62.62,0,0,0,0,.11,3.58,3.58,0,0,0-.11.35,6.38,6.38,0,0,0-.19.72c-.11.49-.18,1-.26,1.52a14,14,0,0,1-.73,3.19l.06.5-.06.12c.09,0,.09.54,0,.88-.26.27-.42-.13-.67,1a16.63,16.63,0,0,0-.67,3.65c.18-.6.23-.38.24-.1-.13.55-.39.82-.41,1.26h-.27c.29-.16-.08,1.49,0,1.72-.26.27,0-.89-.06-1.06l-.75,3.31c-.1,1.22.28-.16.37.45a18.2,18.2,0,0,1-.7,3.26l.31-.32a16.13,16.13,0,0,1-1.13,4.4C84.8,57.27,88.2,46,88.2,46,90.05,40.39,90.11,37.28,91.56,30.44Z"/><path class="cls-1" d="M16.43,31.28l.21.18S16.6,31.36,16.43,31.28Z"/><path class="cls-1" d="M74.47,27.71l0-.05S74.47,27.7,74.47,27.71Z"/><path class="cls-1" d="M24.58,37.69h0Z"/><path class="cls-1" d="M12.53,33c3.14,1.27,3.83,2,7.2,3,1.56.61,3.28,1.13,4.83,1.64.85-.06,2,.74,3,.78l.27.31a1.65,1.65,0,0,1,1,.29l0,0a9.27,9.27,0,0,1,1.21.31l0,0,.55.18-.13,0a9,9,0,0,1,2.32.74l0-.24c1.42.8,2.14.54,3.39,1.33l0,0c1.94,0,2.57,1.4,4.55,1.49-.25,0,0,.15,0,.19.84.24,1.72.53,1.89.09.6.23.44.32.45.51.07-.19.61-.08,1.09.08h-.25l1.59.52.35-.18a2.57,2.57,0,0,1-.37-.21l0-.05,0,0c.9-.31.3.37,1.24-.19l-.15-.28a13.84,13.84,0,0,1,2.76-.46c3.82-1.69,7.52-4.38,11.27-5.56l.26.14c.22.28.74-.94,1-.71l.34-.34c.14,0,.41-.05.24.12a1.33,1.33,0,0,0,.6-.46h.5C65,35.7,66.07,34.71,67.67,34c2.07-.5,5.44-2.58,7.37-3.78,2.64-1.85,6.58-2.2,9.25-4.15.12,0,.32-.22.3-.26l2.71-1.25s13.08-6.16,1.92-4l0-.1a8.09,8.09,0,0,0-3.34,1.79c-.36-.35-1.23.54-1.64.56l0,0c-.74.76-2,.62-2.7,1.33a.31.31,0,0,1,.17-.28c-.6.36-1.42.87-1.58.65-1.47.79-3.63,1.68-4.4,2.54l0-.1c-.42.53-.69.39-1.24.82l-.1,0c-.47.55-1.73.88-2.16,1.23l-.11-.15L71,29.4l.46-.18c.07.53-1,.15-1.76.86-.83.33-1.18,1.73-2.13,1.91-.3.41.19-.51-.33-.06-.14-.22.2-.28,0-.39-.53.39-1.08.22-1.73.73l-.12-.17c-.78.79-1.9.62-2.37,1.24-.91.62-.92-.23-1.76.62l-.52-.06c-.45.17-.16.46-.7.57-.05-.17-.67.17-.46-.12-1.21.29-2,1.42-3.68,1.7-.17.45-1,.62-1.1,1-.1-.11-1.46.68-.79,0,.06-.06.19-.11.2-.06v-.22c-1,.05-1.39.9-2.23,1.24.27-.06.58-.23.43,0l-.77.34.09-.23-1.17.45.25.12c-.6.17-1-.06-1.44.5-.21.29.64,0,.09.35a29.13,29.13,0,0,0-3,1c.19.17-.07.29-.3.46l-.12-.17c-.8.7-.83-.1-.87.16,0,0,0-.1,0-.14a2.3,2.3,0,0,1,0,.46v0c-.1.15-.15,0-.15-.07v-.06s0,0-.08,0a1.89,1.89,0,0,0-.61,0c.42.12,0,.49-.43.23l.19-.14c-.29-.06-.41,0-.58-.13.2,0,.19-.23-.23-.35l.35-.13-.89,0c-.53-.41-1.56-.51-1.71-.86,0,0-1.24-.6-1.64-.42.33-.08-.36-.41-.08-.54a2.57,2.57,0,0,1-1.76-.48h.08c-1.37-.75-2.59-.61-3.8-1.36,0,.25-.66-.12-.6.22-1.45-.21-2.24-1.48-3.05-.78-.63-.17-.65-.47-.95-.63h.16a23.59,23.59,0,0,1-2.36-.8c-.46-.07-.67.31-1.4-.06.3-.08,0-.16-.3-.26.19,0,.27,0-.07-.25a.66.66,0,0,1-.25,0s0,0,0,0c-.49-.12-.43,0-.22.06,0,0,0,.06,0,.13-.41-.39-1.38-.49-1.34-.79-1.46-.46-2.59-.55-3.82-.87-.08-.2.24-.22.61-.15l-.87-.26c.09-.2.53.06.81.12-.89-.71-2.2-.43-3.27-1.17l-.3.07-.06-.05c0,.09-.34.11-.53.07-.1-.24.17-.41-.42-.61a5.19,5.19,0,0,0-2-.52c.32.15.17.21,0,.22s-.4-.34-.65-.35l.06-.25c0,.27-.85,0-1,0-.1-.24.51,0,.63-.1L11,29.34c-.69-.05,0,.27-.35.37a5.24,5.24,0,0,1-1.75-.56l.12.29a5,5,0,0,1-2.33-.94c-8.37-1.08-2.5,1.8-2.5,1.8C7,31.89,8.84,31.84,12.53,33Z"/></svg>