<svg xmlns="http://www.w3.org/2000/svg" viewBox="0 0 107 80"><path fill="#FFF" d="M106.23,37.15A13.58,13.58,0,0,0,103,34.34c-4.77-2.79-9.3-6-14.39-8.23A22.9,22.9,0,0,0,81.31,24c-1-.08-2.1-.15-2.64.72a7.08,7.08,0,0,0-1.18,4.11c.06,1.14,1,1.76,1.81,2.35a66.25,66.25,0,0,0,5.87,3.89H40.62a3.68,3.68,0,0,0,0,7.35H87.18c-1,.68-1.87,1.41-2.79,2.17A16.34,16.34,0,0,0,79,52.52a2.71,2.71,0,0,0,1.91,3.66,5.55,5.55,0,0,0,2.68.22,33.38,33.38,0,0,0,8.18-2.74,38.34,38.34,0,0,0,5-2.83c2.06-1.41,4.25-2.6,6.3-4.06,2.43-1.73,3.28-4.22,4-6.81A2.94,2.94,0,0,0,106.23,37.15ZM88.16,48.81c-1.2.47-2.32,1.58-4,1.06a5.49,5.49,0,0,1,2.56-2.57c1.7-.88,3.32-1.91,5.07-2.73,2.37-1.11,4.92-1.57,7.31-2.52a.88.88,0,0,1,1,.22A62.35,62.35,0,0,1,88.16,48.81Z"/><path fill="#FFF" d="M40,80A39.74,39.74,0,1,1,72.1,16.67,3.68,3.68,0,0,1,66.18,21,33.71,33.71,0,0,0,63,17.28a32.45,32.45,0,1,0,0,45.89A33.49,33.49,0,0,0,66.46,59a3.67,3.67,0,1,1,6,4.27A39.85,39.85,0,0,1,40,80Z"/></svg>
