<svg id="Calque_1" data-name="Calque 1" xmlns="http://www.w3.org/2000/svg" viewBox="0 0 115 80">
    <defs>
        <style>.cls-1 {
            fill: #EB611B;
        }</style>
    </defs>
    <circle class="cls-1" cx="57.5" cy="45.74" r="14.91"/>
    <path class="cls-1"
          d="M110.27,11.32H80.63a3.68,3.68,0,0,0-.35-.82L75.69,2.86A3.8,3.8,0,0,0,72.41,1H42.59a3.8,3.8,0,0,0-3.28,1.86L34.72,10.5a3.68,3.68,0,0,0-.35.82H4.73A3.82,3.82,0,0,0,.91,15.15v60A3.82,3.82,0,0,0,4.73,79H110.27a3.82,3.82,0,0,0,3.82-3.82v-60A3.82,3.82,0,0,0,110.27,11.32ZM57.5,68.3A22.56,22.56,0,1,1,80.06,45.74,22.59,22.59,0,0,1,57.5,68.3Z"/>
</svg>
