<svg id="Calque_1" data-name="Calque 1" xmlns="http://www.w3.org/2000/svg" viewBox="0 0 80 80"><defs><style>.cls-1{fill:#fff;}.cls-2{fill:#1e2042;}.cls-3{fill:#1e1f44;}</style></defs><circle class="cls-1" cx="40.46" cy="39.97" r="37.76"/><path class="cls-2" d="M30,78.32c.1,0,.15,0,0,0Z"/><path class="cls-2" d="M11.3,12.37l.06-.06a.78.78,0,0,1,0-.22Z"/><path class="cls-2" d="M22,4.68l.08,0S22.09,4.59,22,4.68Z"/><path class="cls-2" d="M.82,40.21a.54.54,0,0,0,0,.22A.69.69,0,0,1,.82,40.21Z"/><path class="cls-2" d="M53.63,77.18l-.05,0h.05Z"/><path class="cls-2" d="M53.41,77.35c-.28.06.06-.09.17-.15a2.88,2.88,0,0,0-.92.27C52.68,77.55,53.26,77.34,53.41,77.35Z"/><path class="cls-2" d="M79.37,45l0,.13S79.38,45,79.37,45Z"/><path class="cls-2" d="M5,39v.18A.42.42,0,0,0,5,39Z"/><path class="cls-2" d="M77.85,51.63l.1.11C77.92,51.66,77.89,51.64,77.85,51.63Z"/><path class="cls-2" d="M11.38,12.09l0-.1A.36.36,0,0,0,11.38,12.09Z"/><path class="cls-2" d="M33.55.85a.18.18,0,0,0,.08.09h0Z"/><path class="cls-2" d="M77.32,32.45l0-.05-.14-.2A1.06,1.06,0,0,0,77.32,32.45Z"/><path class="cls-2" d="M50,2S50,2,50,2a15.72,15.72,0,0,0-1.92-.48L48,1.62C48.68,1.72,49.33,1.87,50,2Z"/><path class="cls-2" d="M63.35,13.07c-.32-.44-.68-.85-1-1.26A28.16,28.16,0,0,1,66.9,16c1.16,1.36,2.21,2.69,3.53,4.45l-.19-.16c.13.29.42.4,1,1.27a18.1,18.1,0,0,1,2.4,6h0a1.47,1.47,0,0,1,.23.69c-.06-.41-.14-.81-.23-1.21a13.14,13.14,0,0,1,1,2.12c0,.21,0,.3-.06.34.23.76.49,1.52.67,2.29l0,.76c.26.69.65.28.72,2.27.22-.79.31.94.44.68,0,.1-.06.34-.09.52.09.58.17,1.43.27,2.19A11.17,11.17,0,0,0,76.8,40l.08-.74c.05-.46.15-1.09.19-1.75.13-1.34.16-2.86.23-3.52.16,1.7.11.44.16.09l-.1-.1a10.55,10.55,0,0,1,0-1.59l0,0,0,.06c0,.06-.05,0-.08,0s-.08,0-.13-.3l0,.05c-.13-.42-.26-1.15-.32-1.47l.16,0a3.75,3.75,0,0,1-.37-1.1l-.17-.86q-.1-.46-.21-1c-.12-.66-.28-1.32-.43-1.88a8.52,8.52,0,0,0-.39-1.26,20.93,20.93,0,0,0-1.59-3.31c-1-1.84-.31-1-.75-2-.63-1.17,0,.33-.31-.11s-.44-1-.7-1.45c.55.75.35.28.3.11-.75-1.16-1.88-3.06-2.43-3.16-.55-.75-.81-1.15-1-1.43a6.94,6.94,0,0,0-.58-.75c.14.24.47.67.43.71-.42-.64-.28-.23-.09,0-.43-.37-1.36-1.52-2.31-2.53s-1.9-1.85-2.1-1.78l0,0c-.37,0-.2.51-.91.15l-.36-.4-.71-.37C62,7.89,62.29,8,62.31,8c-.57-.32-1.22-.74-1.9-1.19S59,5.87,58.32,5.51c.39.46.75.94,1.1,1.43-1-.83-3-2.14-3.37-2l-.63-.55c-2.29-1.42-1.8-.47-2.74-1-.39-.22-.78-.46-1.19-.65.43.11.85.26,1.27.4l-1.44-.64c-.4-.17-.77-.36-1.27-.57h0c.07,0,.11.05.12.07L50,2a4.69,4.69,0,0,1-1.8-.19c-.66-.13-1.25-.21-1.93-.31-.35,0-.72-.09-1.13-.16l-1.4-.28-.55.24c-.52-.11-1-.18-1.58-.24V.83a41.29,41.29,0,0,1,6.54.64l.06-.09c-.6-.1-1.24-.2-1.83-.27S45.22,1,44.83.94,43.47.56,44.21.46l-.76.16c-1-.09-1.77-.08-2.41-.1s-1.15,0-1.67,0-1,0-1.7,0l-1.11,0L35.15.64l.38.07c-.41.08-.82.16-1.16.21a1.43,1.43,0,0,1-.74,0c-2.51.39-5.08,1-6.75,1.31-.08.12-.17.24-.25.37-.51.18-1.41.12-1.52.55-.34.18-.67.38-1,.57s-.6.3-.87.44a4.87,4.87,0,0,1-1,.43h0l-.15,0,0,0c-.77.32-.74.38-.74.44s0,.13-.88.54c-.62.15-.42.61-1.23,1.06l-1,.2c-1.5.8-1.55,1.24-3.42,2.79-1,.66-1.61.81-1.21.08a5.91,5.91,0,0,1-1.14,1.59c-.26.05-.17-.07,0-.38-1,.76-.47.64-1.14,1.32,0,.38.08.89-.11,1.13l.31-.21c-.3.4-.59.84-.93,1.25s-.71.84-1.11,1.26l-.08-.12c-.23.34-.48.67-.69,1l-.19,0c-.32.5-.66,1-1,1.48l.17-.18c-.19.37-.91,1.52-1.35,2.16L6.34,20C5,21.74,4.5,23.56,3.61,26l0-.38c-.49.75.16.32-.27,1.27l-.23,0c0,1-.46,1.1-.75,1.68l.38-.19L2.3,29.43c-.23.61-.37.79-.47.78s-.18-.22-.23-.33l0,.94-.3.11c.16.72-.23.63-.26,1.81-.12.08-.12-.22-.23.16l0,1,.07,1c0-.39,0-.78,0-1.17l.37.2c.15,1.22-.27,1.59-.23,2.45,0-.2-.05-.4-.06-.59A7.71,7.71,0,0,1,.65,38c.09-.24.23-.6.24,0s-.15.22-.2.61c.27.1.35,1.09.26,2a.13.13,0,0,1-.1-.09,1.52,1.52,0,0,1,.06.75L.61,41l.3.76c-.07.52.22,1.25,0,1.2l-.08-.29a38.6,38.6,0,0,0,.38,3.88L1,46.6c.19.16.25.69.31,1.16s.16.86.34.75A6.5,6.5,0,0,0,2,50.15c.17.56.26,1,0,.83.08.31.17.61.25.88s.21.54.31.79c.21.5.4,1,.64,1.46s.45,1,.7,1.53.51,1.18.81,1.9A8.44,8.44,0,0,0,5.74,60.1a15.75,15.75,0,0,0,.92,1.52c.31.5.62,1,.92,1.39A37.85,37.85,0,0,0,11,66.94,46.54,46.54,0,0,0,15,70.43a8.75,8.75,0,0,0,1.44,1.4,22.14,22.14,0,0,0,1.85,1.26c1.32.77,2.69,1.48,3.77,2.2l.73.13c1.39,1.09,4,1.74,6.18,2.74.6.07.9.13,1,.16-.11,0-.26-.12-.27-.27.63.3,2,.49,1.86.73h-.18c-.08.12.44.21,1.07.31a6.9,6.9,0,0,1,1.73.35l-.37-.36c.42.1.85.18,1.28.25h-.36c2.85.07,4.87.19,6.88.21a19.92,19.92,0,0,0,6.55-.86c-.32.21-.07.13.28,0s.77-.25.84-.09a3.5,3.5,0,0,0,1.85-.36c.54-.26,1-.55,1.54-.79,0,0,0,0,.05-.09.6-.19,1.22-.36,1.81-.59-.91.82,1.15-.85.31-.11A29.85,29.85,0,0,0,62.27,73a46.25,46.25,0,0,0,6.84-5.73l-.26.11c.26-.26.52-.55.79-.84l.75-.9c.52-.58,1-1.16,1.38-1.54a4.28,4.28,0,0,0,.93-1.4c.23-.48.38-.9.48-1.09A4.49,4.49,0,0,1,74,60.29c.24-.28.39-.36.25-.14.61-1.15.85-2.39,1.75-3.94a2.56,2.56,0,0,0,.51-.89c.18-.45.35-1,.53-1.57.32-1.11.56-2.16.78-2.12l0,0c1-2.12.93-4.35,1.51-6.75a1,1,0,0,1,0,.14,40.48,40.48,0,0,0-.94-5c-.48.46-1,.91-1.43,1.34a36.65,36.65,0,0,1-1.49,3.88,36,36,0,0,1-1.06,5.24,38,38,0,0,1-1.84,5,36.7,36.7,0,0,1-5,6.92A35.33,35.33,0,0,1,50.77,73.83l-1.34.71c-2.06.24-4.34.65-6.7.84a23.6,23.6,0,0,1-7-.34l-.12.26a2.8,2.8,0,0,1-1.42-.42,35.07,35.07,0,0,1-8.3-2.47,36.13,36.13,0,0,1-3.88-2A35.08,35.08,0,0,1,18.47,68a34.65,34.65,0,0,1-3.22-2.81,34.12,34.12,0,0,1-2.78-3.14,31.74,31.74,0,0,1-4.14-6.9c-.12-.5-.54-1.41-.86-2.34-.09-.23-.17-.46-.25-.68L7,51.53a4.66,4.66,0,0,1-.21-.93,23.2,23.2,0,0,1-1.46-4.93,29.17,29.17,0,0,1-.46-5.15l0,.13c-.05-.53-.05-1.07-.05-1.6C4.91,39,5,39,5,39a7.56,7.56,0,0,1,0-1.52,13.53,13.53,0,0,1,.18-1.74,30.8,30.8,0,0,1,.76-3.48v.13a36.41,36.41,0,0,1,8.4-16.5A33.13,33.13,0,0,1,29.92,6.09a53.78,53.78,0,0,1,9.29-1.43,32.18,32.18,0,0,1,5,.11,27.79,27.79,0,0,1,5,1,59.76,59.76,0,0,1,7.44,3A43.15,43.15,0,0,1,63.35,13.07Z"/><path class="cls-2" d="M74.6,29.52l0-.05C74.48,29.5,74.54,29.56,74.6,29.52Z"/><polygon class="cls-2" points="58.23 5.46 58.32 5.51 58.07 5.2 58.23 5.46"/><path class="cls-2" d="M72.93,18.51c-.46-.76-.53-.77-.49-.64A6.11,6.11,0,0,0,72.93,18.51Z"/><path class="cls-2" d="M76.16,36c0,.43.09.26.13,0l-.11-.74C76.18,35.54,76.15,35.79,76.16,36Z"/><path class="cls-2" d="M77.46,34.05l.11.12C77.51,33.91,77.47,33.93,77.46,34.05Z"/><path class="cls-3" d="M56.39,53.25a5.12,5.12,0,0,0,1.51.23,20.79,20.79,0,0,1,6,1.74c.44.18,1,.37,1.1.89a3.38,3.38,0,0,1-.09,2c-.16.46-.68.56-1.15.63a10.89,10.89,0,0,1-3.6-.18,66.23,66.23,0,0,1-7.6-2.23,7,7,0,0,1-1.84-.94A1.42,1.42,0,0,1,50,54.22a5.53,5.53,0,0,1,1.13-3.62c.79-.9,1.68-1.7,2.48-2.58a17.65,17.65,0,0,1,2-1.87A16.51,16.51,0,0,1,59.14,44a2.76,2.76,0,0,1,1.27-.19,1.29,1.29,0,0,1,1.29,1.49,7.7,7.7,0,0,1-1.63,4.28,13.18,13.18,0,0,1-3.6,3.54S56.42,53.18,56.39,53.25Zm3.18-6.17c-.81-.06-1.21.58-1.71.93A29.58,29.58,0,0,0,53,52.38a.42.42,0,0,0,.5,0c1-.7,2.14-1.2,3.12-2,.73-.57,1.37-1.23,2.06-1.83A2.61,2.61,0,0,0,59.57,47.08Z"/><path class="cls-3" d="M24.87,38.37a4.91,4.91,0,0,0,0-1.53,20.72,20.72,0,0,1,.75-6.22c.11-.47.21-1,.71-1.23a3.36,3.36,0,0,1,2-.24c.49.08.66.58.81,1a11.08,11.08,0,0,1,.4,3.58,67.23,67.23,0,0,1-1,7.86,6.83,6.83,0,0,1-.64,2,1.41,1.41,0,0,1-1.08.9A5.54,5.54,0,0,1,23.09,44c-1-.63-1.95-1.38-2.95-2A18.39,18.39,0,0,1,18,40.24a16.3,16.3,0,0,1-2.71-3.1,2.71,2.71,0,0,1-.4-1.23,1.3,1.3,0,0,1,1.27-1.51,7.78,7.78,0,0,1,4.48.92,13.36,13.36,0,0,1,4.07,3S24.79,38.34,24.87,38.37Zm-6.61-2.15c.08.81.77,1.1,1.2,1.54a29.4,29.4,0,0,0,5.09,4.1.42.42,0,0,0-.09-.49c-.86-.89-1.53-1.92-2.46-2.77-.68-.62-1.43-1.14-2.13-1.73A2.61,2.61,0,0,0,18.26,36.22Z"/><path class="cls-3" d="M46.68,34.68a7.78,7.78,0,0,0,1.42-1.91,32.16,32.16,0,0,1,6.79-7,2.45,2.45,0,0,1,2-.86,5.21,5.21,0,0,1,2.73,1.62c.52.55.27,1.34,0,2a17.09,17.09,0,0,1-2.88,4.82c-2.56,3.24-5.72,5.9-8.63,8.8A10.3,10.3,0,0,1,45.53,44a2.16,2.16,0,0,1-2.18.09c-1.72-1-3.35-2.12-4.13-4.19-.67-1.75-1.12-3.55-1.74-5.3a29.41,29.41,0,0,1-1.09-4.12A24.56,24.56,0,0,1,36,24.1a4.24,4.24,0,0,1,.66-1.89,2,2,0,0,1,3-.68,12.12,12.12,0,0,1,4.68,5.38,20.36,20.36,0,0,1,2.23,7.53C46.52,34.51,46.61,34.58,46.68,34.68Zm-6.15-8.89c-.67,1.07-.09,2.08,0,3A46.34,46.34,0,0,0,43,38.7a.64.64,0,0,0,.35-.7c-.23-1.9-.08-3.82-.43-5.73-.26-1.42-.69-2.78-1-4.16A4,4,0,0,0,40.53,25.79Z"/></svg>